<?xml version="1.0" encoding="UTF-8" standalone="no"?>
<!-- Created with Inkscape (http://www.inkscape.org/) -->
<svg
   xmlns:dc="http://purl.org/dc/elements/1.1/"
   xmlns:cc="http://web.resource.org/cc/"
   xmlns:rdf="http://www.w3.org/1999/02/22-rdf-syntax-ns#"
   xmlns:svg="http://www.w3.org/2000/svg"
   xmlns="http://www.w3.org/2000/svg"
   xmlns:xlink="http://www.w3.org/1999/xlink"
   xmlns:sodipodi="http://inkscape.sourceforge.net/DTD/sodipodi-0.dtd"
   xmlns:inkscape="http://www.inkscape.org/namespaces/inkscape"
   width="32px"
   height="32px"
   id="svg1306"
   sodipodi:version="0.32"
   inkscape:version="0.42"
   inkscape:export-filename="lounch.pnh"
   inkscape:export-xdpi="360.00000"
   inkscape:export-ydpi="360.00000"
   sodipodi:docbase="/home/pinheiro"
   sodipodi:docname="launch.svg">
  <defs
     id="defs1308">
    <linearGradient
       id="linearGradient5343">
      <stop
         id="stop5345"
         offset="0.0000000"
         style="stop-color:#8a0000;stop-opacity:1.0000000;" />
      <stop
         id="stop5347"
         offset="1.0000000"
         style="stop-color:#fc0000;stop-opacity:1.0000000;" />
    </linearGradient>
    <linearGradient
       id="linearGradient5314">
      <stop
         style="stop-color:#fcb12e;stop-opacity:1.0000000;"
         offset="0.0000000"
         id="stop5316" />
      <stop
         id="stop5322"
         offset="0.50000000"
         style="stop-color:#fcfa2e;stop-opacity:1.0000000;" />
      <stop
         style="stop-color:#fffced;stop-opacity:1.0000000;"
         offset="1.0000000"
         id="stop5318" />
    </linearGradient>
    <linearGradient
       id="linearGradient5300">
      <stop
         id="stop5302"
         offset="0.0000000"
         style="stop-color:#f6bb00;stop-opacity:1.0000000;" />
      <stop
         id="stop5304"
         offset="1.0000000"
         style="stop-color:#a10004;stop-opacity:1.0000000;" />
    </linearGradient>
    <linearGradient
       id="linearGradient5276">
      <stop
         style="stop-color:#c2c2cf;stop-opacity:1;"
         offset="0"
         id="stop5278" />
      <stop
         style="stop-color:#e9e9e9;stop-opacity:1.0000000;"
         offset="1.0000000"
         id="stop5280" />
    </linearGradient>
    <linearGradient
       id="linearGradient5234">
      <stop
         id="stop5236"
         offset="0.0000000"
         style="stop-color:#ffffff;stop-opacity:0.0000000;" />
      <stop
         id="stop5238"
         offset="1.0000000"
         style="stop-color:#fcffff;stop-opacity:1.0000000;" />
    </linearGradient>
    <linearGradient
       id="linearGradient5208">
      <stop
         style="stop-color:#ffffff;stop-opacity:1.0000000;"
         offset="0.0000000"
         id="stop5210" />
      <stop
         style="stop-color:#ffffff;stop-opacity:0;"
         offset="1"
         id="stop5212" />
    </linearGradient>
    <linearGradient
       inkscape:collect="always"
       id="linearGradient3734">
      <stop
         style="stop-color:#ffffff;stop-opacity:1;"
         offset="0"
         id="stop3736" />
      <stop
         style="stop-color:#ffffff;stop-opacity:0;"
         offset="1"
         id="stop3738" />
    </linearGradient>
    <linearGradient
       id="linearGradient3694">
      <stop
         style="stop-color:#f6671c;stop-opacity:1;"
         offset="0"
         id="stop3696" />
      <stop
         id="stop3702"
         offset="0.50000000"
         style="stop-color:#f6671c;stop-opacity:1.0000000;" />
      <stop
         style="stop-color:#fa9b6a;stop-opacity:1.0000000;"
         offset="0.62500000"
         id="stop3706" />
      <stop
         style="stop-color:#fcc6aa;stop-opacity:1.0000000;"
         offset="0.75000000"
         id="stop3704" />
      <stop
         style="stop-color:#fdcfb7;stop-opacity:1.0000000;"
         offset="1.0000000"
         id="stop3698" />
    </linearGradient>
    <linearGradient
       inkscape:collect="always"
       id="linearGradient3682">
      <stop
         style="stop-color:#ffffff;stop-opacity:1;"
         offset="0"
         id="stop3684" />
      <stop
         style="stop-color:#ffffff;stop-opacity:0;"
         offset="1"
         id="stop3686" />
    </linearGradient>
    <linearGradient
       id="linearGradient3650">
      <stop
         style="stop-color:#820000;stop-opacity:1.0000000;"
         offset="0.0000000"
         id="stop3652" />
      <stop
         id="stop3662"
         offset="0.25000000"
         style="stop-color:#000000;stop-opacity:0.0000000;" />
      <stop
         id="stop3658"
         offset="0.50000000"
         style="stop-color:#000000;stop-opacity:0.0000000;" />
      <stop
         style="stop-color:#000000;stop-opacity:0.0000000;"
         offset="0.50000000"
         id="stop3660" />
      <stop
         style="stop-color:#000000;stop-opacity:0;"
         offset="1"
         id="stop3654" />
    </linearGradient>
    <linearGradient
       id="linearGradient3624">
      <stop
         style="stop-color:#d80000;stop-opacity:1.0000000;"
         offset="0.0000000"
         id="stop3626" />
      <stop
         style="stop-color:#780000;stop-opacity:1.0000000;"
         offset="1.0000000"
         id="stop3628" />
    </linearGradient>
    <linearGradient
       inkscape:collect="always"
       id="linearGradient2068">
      <stop
         style="stop-color:#f8782d;stop-opacity:1;"
         offset="0"
         id="stop2070" />
      <stop
         style="stop-color:#fcdac4;stop-opacity:1.0000000"
         offset="1"
         id="stop2072" />
    </linearGradient>
    <linearGradient
       inkscape:collect="always"
       xlink:href="#linearGradient3650"
       id="linearGradient2664"
       x1="-16.093023"
       y1="19.209302"
       x2="-6.1395350"
       y2="19.209302"
       gradientUnits="userSpaceOnUse" />
    <linearGradient
       inkscape:collect="always"
       xlink:href="#linearGradient3734"
       id="linearGradient2667"
       gradientUnits="userSpaceOnUse"
       gradientTransform="matrix(0.959578,1.034245,-0.989606,1.006057,20.21502,-27.13445)"
       x1="19.628368"
       y1="19.282999"
       x2="23.046047"
       y2="35.713127" />
    <linearGradient
       inkscape:collect="always"
       xlink:href="#linearGradient5234"
       id="linearGradient2670"
       gradientUnits="userSpaceOnUse"
       gradientTransform="matrix(0.584312,0.744789,-0.524258,0.630305,21.07262,-17.65738)"
       x1="20.821884"
       y1="12.800026"
       x2="18.040709"
       y2="11.992976" />
    <linearGradient
       inkscape:collect="always"
       xlink:href="#linearGradient3624"
       id="linearGradient2673"
       gradientUnits="userSpaceOnUse"
       gradientTransform="matrix(0.959578,1.034245,-0.989606,1.006057,20.21502,-27.13445)"
       x1="14.344229"
       y1="11.236617"
       x2="20.107168"
       y2="30.937449" />
    <linearGradient
       inkscape:collect="always"
       xlink:href="#linearGradient3734"
       id="linearGradient2682"
       gradientUnits="userSpaceOnUse"
       gradientTransform="matrix(0.959578,1.034245,-0.989606,1.006057,20.21502,-27.13445)"
       x1="19.686369"
       y1="17.429632"
       x2="18.754181"
       y2="32.442986" />
    <linearGradient
       inkscape:collect="always"
       xlink:href="#linearGradient3650"
       id="linearGradient2685"
       gradientUnits="userSpaceOnUse"
       gradientTransform="matrix(0.959578,1.034245,-1.156522,1.175748,25.27234,-32.27584)"
       spreadMethod="reflect"
       x1="20.360849"
       y1="23.649269"
       x2="22.697731"
       y2="23.649269" />
    <linearGradient
       inkscape:collect="always"
       xlink:href="#linearGradient3650"
       id="linearGradient2688"
       gradientUnits="userSpaceOnUse"
       gradientTransform="matrix(0.959578,1.034245,-1.156522,1.175748,25.27234,-32.27584)"
       spreadMethod="reflect"
       x1="20.360849"
       y1="23.649269"
       x2="22.697731"
       y2="23.649269" />
    <linearGradient
       inkscape:collect="always"
       xlink:href="#linearGradient3650"
       id="linearGradient2691"
       gradientUnits="userSpaceOnUse"
       gradientTransform="matrix(0.959578,1.034245,-1.156522,1.175748,25.27234,-32.27584)"
       spreadMethod="reflect"
       x1="20.360849"
       y1="23.649269"
       x2="22.697731"
       y2="23.649269" />
    <linearGradient
       inkscape:collect="always"
       xlink:href="#linearGradient3650"
       id="linearGradient2694"
       gradientUnits="userSpaceOnUse"
       gradientTransform="matrix(0.959578,1.034245,-1.076712,1.094611,22.85421,-29.81752)"
       spreadMethod="reflect"
       x1="20.360849"
       y1="23.649269"
       x2="22.697731"
       y2="23.649269" />
    <linearGradient
       inkscape:collect="always"
       xlink:href="#linearGradient3650"
       id="linearGradient2697"
       gradientUnits="userSpaceOnUse"
       gradientTransform="matrix(0.959578,1.034245,-1.076712,1.094611,22.85421,-29.81752)"
       spreadMethod="reflect"
       x1="20.360849"
       y1="23.649269"
       x2="22.697731"
       y2="23.649269" />
    <linearGradient
       inkscape:collect="always"
       xlink:href="#linearGradient3650"
       id="linearGradient2700"
       gradientUnits="userSpaceOnUse"
       gradientTransform="matrix(0.959578,1.034245,-1.076712,1.094611,22.85421,-29.81752)"
       spreadMethod="reflect"
       x1="20.360849"
       y1="23.649269"
       x2="22.697731"
       y2="23.649269" />
    <linearGradient
       inkscape:collect="always"
       xlink:href="#linearGradient5276"
       id="linearGradient2703"
       gradientUnits="userSpaceOnUse"
       gradientTransform="matrix(1.378282,1.993193e-2,-2.123301e-2,1.442712,11.47690,-6.573470)"
       x1="9.1022177"
       y1="14.995403"
       x2="5.2958355"
       y2="11.561384" />
    <linearGradient
       inkscape:collect="always"
       xlink:href="#linearGradient3682"
       id="linearGradient2706"
       gradientUnits="userSpaceOnUse"
       gradientTransform="matrix(0.959578,1.034245,-0.989606,1.006057,20.21502,-27.13445)"
       x1="16.871012"
       y1="9.0000000"
       x2="22.545158"
       y2="22.528393" />
    <linearGradient
       inkscape:collect="always"
       xlink:href="#linearGradient5276"
       id="linearGradient2709"
       gradientUnits="userSpaceOnUse"
       gradientTransform="matrix(1.378282,1.993193e-2,-2.123301e-2,1.442712,14.27593,-9.419023)"
       x1="9.6151142"
       y1="15.569112"
       x2="5.2958355"
       y2="11.561384" />
    <linearGradient
       inkscape:collect="always"
       xlink:href="#linearGradient3694"
       id="linearGradient2712"
       gradientUnits="userSpaceOnUse"
       gradientTransform="matrix(0.959578,1.034245,-0.989606,1.006057,20.21502,-27.13445)"
       x1="14.079232"
       y1="23.985668"
       x2="25.775826"
       y2="23.913467" />
    <linearGradient
       inkscape:collect="always"
       xlink:href="#linearGradient3650"
       id="linearGradient2720"
       gradientUnits="userSpaceOnUse"
       gradientTransform="matrix(0.959578,1.034245,-0.989606,1.006057,20.21502,-27.13445)"
       spreadMethod="reflect"
       x1="20.360849"
       y1="23.649269"
       x2="22.697731"
       y2="23.649269" />
    <linearGradient
       inkscape:collect="always"
       xlink:href="#linearGradient3650"
       id="linearGradient2723"
       gradientUnits="userSpaceOnUse"
       gradientTransform="matrix(0.959578,1.034245,-0.989606,1.006057,20.21502,-27.13445)"
       spreadMethod="reflect"
       x1="20.360849"
       y1="23.649269"
       x2="22.697731"
       y2="23.649269" />
    <linearGradient
       inkscape:collect="always"
       xlink:href="#linearGradient3650"
       id="linearGradient2726"
       gradientUnits="userSpaceOnUse"
       gradientTransform="matrix(0.959578,1.034245,-0.989606,1.006057,20.21502,-27.13445)"
       spreadMethod="reflect"
       x1="20.360849"
       y1="23.649269"
       x2="22.697731"
       y2="23.649269" />
    <linearGradient
       inkscape:collect="always"
       xlink:href="#linearGradient3650"
       id="linearGradient2729"
       gradientUnits="userSpaceOnUse"
       gradientTransform="matrix(0.959578,1.034245,-0.989606,1.006057,20.21502,-27.13445)"
       spreadMethod="reflect"
       x1="20.360849"
       y1="23.649269"
       x2="22.697731"
       y2="23.649269" />
    <linearGradient
       inkscape:collect="always"
       xlink:href="#linearGradient3650"
       id="linearGradient2732"
       gradientUnits="userSpaceOnUse"
       gradientTransform="matrix(0.959578,1.034245,-0.989606,1.006057,20.21502,-27.13445)"
       spreadMethod="reflect"
       x1="20.360849"
       y1="23.649269"
       x2="22.697731"
       y2="23.649269" />
    <linearGradient
       inkscape:collect="always"
       xlink:href="#linearGradient3624"
       id="linearGradient2735"
       gradientUnits="userSpaceOnUse"
       gradientTransform="matrix(0.959578,1.034245,-0.989606,1.006057,20.21502,-27.13445)"
       spreadMethod="reflect"
       x1="17.488371"
       y1="23.649269"
       x2="20.674419"
       y2="23.649269" />
    <linearGradient
       inkscape:collect="always"
       xlink:href="#linearGradient2068"
       id="linearGradient2738"
       gradientUnits="userSpaceOnUse"
       gradientTransform="matrix(0.959578,1.034245,-0.989606,1.006057,20.21502,-27.13445)"
       x1="20.603197"
       y1="30.472332"
       x2="20.107168"
       y2="-36.562283" />
    <linearGradient
       inkscape:collect="always"
       xlink:href="#linearGradient5300"
       id="linearGradient4199"
       gradientUnits="userSpaceOnUse"
       x1="4.0669246"
       y1="29.850290"
       x2="7.4012980"
       y2="27.846943"
       gradientTransform="matrix(1.205642,1.606350e-3,0.154319,1.283127,-2.819946,-14.82287)" />
    <linearGradient
       inkscape:collect="always"
       xlink:href="#linearGradient5314"
       id="linearGradient4203"
       gradientUnits="userSpaceOnUse"
       x1="1.2035288"
       y1="33.263798"
       x2="6.8731256"
       y2="29.853056"
       gradientTransform="matrix(1.205642,1.606350e-3,0.154319,1.283127,-2.819946,-14.82287)" />
    <linearGradient
       inkscape:collect="always"
       xlink:href="#linearGradient5343"
       id="linearGradient4205"
       gradientUnits="userSpaceOnUse"
       x1="3.6535549"
       y1="36.407478"
       x2="3.0023921"
       y2="29.029673"
       gradientTransform="matrix(1.205642,1.606350e-3,0.154319,1.283127,-2.819946,-14.82287)" />
    <linearGradient
       inkscape:collect="always"
       xlink:href="#linearGradient5208"
       id="linearGradient4236"
       gradientUnits="userSpaceOnUse"
       gradientTransform="matrix(1.274337,1.196384,-1.309003,1.159025,20.50575,-33.50944)"
       x1="13.815276"
       y1="20.926695"
       x2="18.536024"
       y2="23.234865" />
    <linearGradient
       inkscape:collect="always"
       xlink:href="#linearGradient5208"
       id="linearGradient4238"
       gradientUnits="userSpaceOnUse"
       gradientTransform="matrix(-1.332697,-1.356984,-1.230355,1.181758,71.15774,16.88880)"
       x1="14.009068"
       y1="10.040245"
       x2="16.812717"
       y2="25.013865" />
    <radialGradient
       inkscape:collect="always"
       xlink:href="#linearGradient3734"
       id="radialGradient4974"
       cx="18.396761"
       cy="14.657619"
       fx="18.396761"
       fy="14.657619"
       r="5.7330152"
       gradientTransform="matrix(-0.263642,0.241045,-0.669372,-0.732120,33.05830,20.97956)"
       gradientUnits="userSpaceOnUse" />
    <radialGradient
       inkscape:collect="always"
       xlink:href="#linearGradient3734"
       id="radialGradient4978"
       cx="17.835358"
       cy="12.287353"
       fx="17.835358"
       fy="12.287353"
       r="6.6231796"
       gradientTransform="matrix(-0.189087,0.195609,-0.581674,-0.562280,28.35503,16.41883)"
       gradientUnits="userSpaceOnUse" />
    <radialGradient
       inkscape:collect="always"
       xlink:href="#linearGradient3682"
       id="radialGradient4982"
       cx="26.774630"
       cy="3.3061163"
       fx="26.774630"
       fy="3.3061163"
       r="10.881564"
       gradientTransform="matrix(-0.209054,0.174403,-7.456195e-2,-8.937630e-2,32.61849,-0.401058)"
       gradientUnits="userSpaceOnUse" />
    <linearGradient
       inkscape:collect="always"
       xlink:href="#linearGradient3624"
       id="linearGradient6438"
       gradientUnits="userSpaceOnUse"
       gradientTransform="matrix(0.959578,1.034245,-0.989606,1.006057,20.21502,-27.13445)"
       x1="14.344229"
       y1="11.236617"
       x2="20.107168"
       y2="30.937449" />
    <linearGradient
       inkscape:collect="always"
       xlink:href="#linearGradient5234"
       id="linearGradient6442"
       gradientUnits="userSpaceOnUse"
       gradientTransform="matrix(0.584312,0.744789,-0.524258,0.630305,21.07262,-17.65738)"
       x1="20.821884"
       y1="12.800026"
       x2="18.040709"
       y2="11.992976" />
    <radialGradient
       inkscape:collect="always"
       xlink:href="#linearGradient3682"
       id="radialGradient6445"
       gradientUnits="userSpaceOnUse"
       gradientTransform="matrix(-0.209054,0.174403,-7.456195e-2,-8.937630e-2,32.61849,-0.401058)"
       cx="26.774630"
       cy="3.3061163"
       fx="26.774630"
       fy="3.3061163"
       r="10.881564" />
    <radialGradient
       inkscape:collect="always"
       xlink:href="#linearGradient3734"
       id="radialGradient6448"
       gradientUnits="userSpaceOnUse"
       gradientTransform="matrix(-0.189087,0.195609,-0.581674,-0.562280,28.35503,16.41883)"
       cx="17.835358"
       cy="12.287353"
       fx="17.835358"
       fy="12.287353"
       r="6.6231796" />
    <radialGradient
       inkscape:collect="always"
       xlink:href="#linearGradient3734"
       id="radialGradient6451"
       gradientUnits="userSpaceOnUse"
       gradientTransform="matrix(-0.263642,0.241045,-0.669372,-0.732120,33.05830,20.97956)"
       cx="18.396761"
       cy="14.657619"
       fx="18.396761"
       fy="14.657619"
       r="5.7330152" />
    <linearGradient
       inkscape:collect="always"
       xlink:href="#linearGradient3734"
       id="linearGradient6454"
       gradientUnits="userSpaceOnUse"
       gradientTransform="matrix(0.959578,1.034245,-0.989606,1.006057,20.21502,-27.13445)"
       x1="19.628368"
       y1="19.282999"
       x2="23.046047"
       y2="35.713127" />
    <linearGradient
       inkscape:collect="always"
       xlink:href="#linearGradient3624"
       id="linearGradient6457"
       gradientUnits="userSpaceOnUse"
       gradientTransform="matrix(0.959578,1.034245,-0.989606,1.006057,20.21502,-27.13445)"
       x1="14.344229"
       y1="11.236617"
       x2="20.107168"
       y2="30.937449" />
    <linearGradient
       inkscape:collect="always"
       xlink:href="#linearGradient5234"
       id="linearGradient6460"
       gradientUnits="userSpaceOnUse"
       gradientTransform="matrix(0.639110,0.698333,-0.474949,0.668247,19.66319,-17.55783)"
       x1="20.821884"
       y1="12.800026"
       x2="18.040709"
       y2="11.992976" />
    <linearGradient
       inkscape:collect="always"
       xlink:href="#linearGradient5234"
       id="linearGradient6463"
       gradientUnits="userSpaceOnUse"
       gradientTransform="matrix(0.639110,0.698333,-0.474949,0.668247,19.66319,-17.55783)"
       x1="20.821884"
       y1="12.800026"
       x2="18.040709"
       y2="11.992976" />
    <linearGradient
       inkscape:collect="always"
       xlink:href="#linearGradient5208"
       id="linearGradient6466"
       gradientUnits="userSpaceOnUse"
       gradientTransform="matrix(-1.332697,-1.356984,-1.230355,1.181758,71.15774,16.88880)"
       x1="14.009068"
       y1="10.040245"
       x2="16.812717"
       y2="25.013865" />
    <linearGradient
       inkscape:collect="always"
       xlink:href="#linearGradient5208"
       id="linearGradient6469"
       gradientUnits="userSpaceOnUse"
       gradientTransform="matrix(1.274337,1.196384,-1.309003,1.159025,20.50575,-33.50944)"
       x1="13.815276"
       y1="20.926695"
       x2="18.536024"
       y2="23.234865" />
    <linearGradient
       inkscape:collect="always"
       xlink:href="#linearGradient3734"
       id="linearGradient6472"
       gradientUnits="userSpaceOnUse"
       gradientTransform="matrix(0.959578,1.034245,-0.989606,1.006057,20.21502,-27.13445)"
       x1="19.686369"
       y1="17.429632"
       x2="18.754181"
       y2="32.442986" />
    <linearGradient
       inkscape:collect="always"
       xlink:href="#linearGradient3650"
       id="linearGradient6475"
       gradientUnits="userSpaceOnUse"
       gradientTransform="matrix(0.959578,1.034245,-1.156522,1.175748,25.27234,-32.27584)"
       spreadMethod="reflect"
       x1="20.360849"
       y1="23.649269"
       x2="22.697731"
       y2="23.649269" />
    <linearGradient
       inkscape:collect="always"
       xlink:href="#linearGradient3650"
       id="linearGradient6478"
       gradientUnits="userSpaceOnUse"
       gradientTransform="matrix(0.959578,1.034245,-1.156522,1.175748,25.27234,-32.27584)"
       spreadMethod="reflect"
       x1="20.360849"
       y1="23.649269"
       x2="22.697731"
       y2="23.649269" />
    <linearGradient
       inkscape:collect="always"
       xlink:href="#linearGradient3650"
       id="linearGradient6481"
       gradientUnits="userSpaceOnUse"
       gradientTransform="matrix(0.959578,1.034245,-1.156522,1.175748,25.27234,-32.27584)"
       spreadMethod="reflect"
       x1="20.360849"
       y1="23.649269"
       x2="22.697731"
       y2="23.649269" />
    <linearGradient
       inkscape:collect="always"
       xlink:href="#linearGradient3650"
       id="linearGradient6484"
       gradientUnits="userSpaceOnUse"
       gradientTransform="matrix(0.959578,1.034245,-1.076712,1.094611,22.85421,-29.81752)"
       spreadMethod="reflect"
       x1="20.360849"
       y1="23.649269"
       x2="22.697731"
       y2="23.649269" />
    <linearGradient
       inkscape:collect="always"
       xlink:href="#linearGradient3650"
       id="linearGradient6487"
       gradientUnits="userSpaceOnUse"
       gradientTransform="matrix(0.959578,1.034245,-1.076712,1.094611,22.85421,-29.81752)"
       spreadMethod="reflect"
       x1="20.360849"
       y1="23.649269"
       x2="22.697731"
       y2="23.649269" />
    <linearGradient
       inkscape:collect="always"
       xlink:href="#linearGradient3650"
       id="linearGradient6490"
       gradientUnits="userSpaceOnUse"
       gradientTransform="matrix(0.959578,1.034245,-1.076712,1.094611,22.85421,-29.81752)"
       spreadMethod="reflect"
       x1="20.360849"
       y1="23.649269"
       x2="22.697731"
       y2="23.649269" />
    <linearGradient
       inkscape:collect="always"
       xlink:href="#linearGradient5276"
       id="linearGradient6493"
       gradientUnits="userSpaceOnUse"
       gradientTransform="matrix(1.378282,1.993193e-2,-2.123301e-2,1.442712,11.47690,-6.573470)"
       x1="9.1022177"
       y1="14.995403"
       x2="5.2958355"
       y2="11.561384" />
    <linearGradient
       inkscape:collect="always"
       xlink:href="#linearGradient3682"
       id="linearGradient6496"
       gradientUnits="userSpaceOnUse"
       gradientTransform="matrix(0.959578,1.034245,-0.989606,1.006057,20.21502,-27.13445)"
       x1="16.871012"
       y1="9.0000000"
       x2="22.545158"
       y2="22.528393" />
    <linearGradient
       inkscape:collect="always"
       xlink:href="#linearGradient5276"
       id="linearGradient6499"
       gradientUnits="userSpaceOnUse"
       gradientTransform="matrix(1.378282,1.993193e-2,-2.123301e-2,1.442712,14.27593,-9.419023)"
       x1="9.6151142"
       y1="15.569112"
       x2="5.2958355"
       y2="11.561384" />
    <linearGradient
       inkscape:collect="always"
       xlink:href="#linearGradient3694"
       id="linearGradient6502"
       gradientUnits="userSpaceOnUse"
       gradientTransform="matrix(0.959578,1.034245,-0.989606,1.006057,20.21502,-27.13445)"
       x1="14.079232"
       y1="23.985668"
       x2="25.775826"
       y2="23.913467" />
    <linearGradient
       inkscape:collect="always"
       xlink:href="#linearGradient3650"
       id="linearGradient6506"
       gradientUnits="userSpaceOnUse"
       gradientTransform="matrix(0.959578,1.034245,-0.989606,1.006057,20.21502,-27.13445)"
       spreadMethod="reflect"
       x1="20.360849"
       y1="23.649269"
       x2="22.697731"
       y2="23.649269" />
    <linearGradient
       inkscape:collect="always"
       xlink:href="#linearGradient3650"
       id="linearGradient6509"
       gradientUnits="userSpaceOnUse"
       gradientTransform="matrix(0.959578,1.034245,-0.989606,1.006057,20.21502,-27.13445)"
       spreadMethod="reflect"
       x1="20.360849"
       y1="23.649269"
       x2="22.697731"
       y2="23.649269" />
    <linearGradient
       inkscape:collect="always"
       xlink:href="#linearGradient3650"
       id="linearGradient6512"
       gradientUnits="userSpaceOnUse"
       gradientTransform="matrix(0.959578,1.034245,-0.989606,1.006057,20.21502,-27.13445)"
       spreadMethod="reflect"
       x1="20.360849"
       y1="23.649269"
       x2="22.697731"
       y2="23.649269" />
    <linearGradient
       inkscape:collect="always"
       xlink:href="#linearGradient3650"
       id="linearGradient6515"
       gradientUnits="userSpaceOnUse"
       gradientTransform="matrix(0.959578,1.034245,-0.989606,1.006057,20.21502,-27.13445)"
       spreadMethod="reflect"
       x1="20.360849"
       y1="23.649269"
       x2="22.697731"
       y2="23.649269" />
    <linearGradient
       inkscape:collect="always"
       xlink:href="#linearGradient3650"
       id="linearGradient6518"
       gradientUnits="userSpaceOnUse"
       gradientTransform="matrix(0.959578,1.034245,-0.989606,1.006057,20.21502,-27.13445)"
       spreadMethod="reflect"
       x1="20.360849"
       y1="23.649269"
       x2="22.697731"
       y2="23.649269" />
    <linearGradient
       inkscape:collect="always"
       xlink:href="#linearGradient3624"
       id="linearGradient6521"
       gradientUnits="userSpaceOnUse"
       gradientTransform="matrix(0.959578,1.034245,-0.989606,1.006057,20.21502,-27.13445)"
       spreadMethod="reflect"
       x1="17.488371"
       y1="23.649269"
       x2="20.674419"
       y2="23.649269" />
    <linearGradient
       inkscape:collect="always"
       xlink:href="#linearGradient2068"
       id="linearGradient6524"
       gradientUnits="userSpaceOnUse"
       gradientTransform="matrix(0.959578,1.034245,-0.989606,1.006057,20.21502,-27.13445)"
       x1="20.603197"
       y1="30.472332"
       x2="20.107168"
       y2="-36.562283" />
    <linearGradient
       inkscape:collect="always"
       xlink:href="#linearGradient5300"
       id="linearGradient6527"
       gradientUnits="userSpaceOnUse"
       gradientTransform="matrix(1.205642,1.606350e-3,0.154319,1.283127,-2.819946,-14.82287)"
       x1="4.0669246"
       y1="29.850290"
       x2="7.4012980"
       y2="27.846943" />
    <linearGradient
       inkscape:collect="always"
       xlink:href="#linearGradient5314"
       id="linearGradient6531"
       gradientUnits="userSpaceOnUse"
       gradientTransform="matrix(1.205642,1.606350e-3,0.154319,1.283127,-2.819946,-14.82287)"
       x1="1.2035288"
       y1="33.263798"
       x2="6.8731256"
       y2="29.853056" />
    <linearGradient
       inkscape:collect="always"
       xlink:href="#linearGradient5343"
       id="linearGradient6533"
       gradientUnits="userSpaceOnUse"
       gradientTransform="matrix(1.205642,1.606350e-3,0.154319,1.283127,-2.819946,-14.82287)"
       x1="3.6535549"
       y1="36.407478"
       x2="3.0023921"
       y2="29.029673" />
  </defs>
  <sodipodi:namedview
     id="base"
     pagecolor="#ffffff"
     bordercolor="#666666"
     borderopacity="1.0"
     inkscape:pageopacity="0.0"
     inkscape:pageshadow="2"
     inkscape:zoom="23.156250"
     inkscape:cx="16.000000"
     inkscape:cy="16.000000"
     inkscape:current-layer="layer1"
     showgrid="false"
     inkscape:grid-bbox="true"
     inkscape:document-units="px"
     showguides="true"
     inkscape:guide-bbox="true"
     inkscape:window-width="1278"
     inkscape:window-height="905"
     inkscape:window-x="82"
     inkscape:window-y="25" />
  <metadata
     id="metadata1311">
    <rdf:RDF>
      <cc:Work
         rdf:about="">
        <dc:format>image/svg+xml</dc:format>
        <dc:type
           rdf:resource="http://purl.org/dc/dcmitype/StillImage" />
      </cc:Work>
    </rdf:RDF>
  </metadata>
  <g
     id="layer1"
     inkscape:label="Layer 1"
     inkscape:groupmode="layer">
    <path
       style="fill:url(#linearGradient6531);fill-opacity:1.0000000;fill-rule:evenodd;stroke:url(#linearGradient6533);stroke-width:0.66100001;stroke-linecap:round;stroke-linejoin:round;stroke-miterlimit:4.0000000;stroke-dasharray:none;stroke-opacity:1.0000000"
       d="M 11.422371,21.530758 C 13.333604,23.376969 12.341953,26.253491 9.8616355,28.599664 C 7.4112854,30.917491 3.7840542,30.586144 0.79779611,30.292368 C 2.5680713,28.103528 2.4700537,24.858839 4.1950882,22.724951 C 6.0097191,20.480232 9.4331734,19.610896 11.422371,21.530758 z "
       id="path5290"
       sodipodi:nodetypes="czczz" />
    <path
       style="fill:#ffffff;fill-opacity:0.51101321;fill-rule:evenodd;stroke:none;stroke-width:1.0000000px;stroke-linecap:butt;stroke-linejoin:miter;stroke-opacity:1.0000000"
       d="M 9.9404800,21.115930 C 7.6413569,20.853859 8.1537475,23.814261 6.9597461,25.696200 C 5.7459690,27.609309 3.0630544,28.899814 1.0607989,29.766073 C 3.4681887,30.161535 7.4993919,29.646433 9.0526666,28.158672 C 10.381874,26.885529 11.366413,21.278469 9.9404800,21.115930 z "
       id="path5324"
       sodipodi:nodetypes="cscss" />
    <path
       style="fill:url(#linearGradient6527);fill-opacity:1.0000000;fill-rule:evenodd;stroke:none;stroke-width:1.0000000px;stroke-linecap:butt;stroke-linejoin:miter;stroke-opacity:1.0000000"
       d="M 9.3075906,20.510054 C 9.0612759,20.810301 9.2071665,21.903016 8.8891570,22.397451 C 8.5279356,22.959070 7.0636773,23.960755 6.5239242,24.387676 C 7.4209490,25.227940 9.1269947,24.087846 9.5507716,23.681254 C 10.017189,23.233751 9.8737800,21.900183 9.9404800,21.115930 C 10.030962,20.052049 9.4117169,20.383128 9.3075906,20.510054 z "
       id="path5326"
       sodipodi:nodetypes="cscsss" />
    <path
       style="fill:url(#linearGradient6524);fill-opacity:1.0000000;fill-rule:evenodd;stroke:none;stroke-width:1.3880099px;stroke-linecap:butt;stroke-linejoin:round;stroke-opacity:1.0000000"
       d="M 31.301736,1.8572079 C 29.352552,1.8290199 25.980842,1.8247127 23.771854,3.4829411 C 21.562866,5.1411694 18.358280,8.2434387 16.185073,10.630594 L 10.885729,10.553957 L 3.1248995,18.604670 L 9.0144610,18.485657 L 9.1652269,24.328820 L 14.674305,24.933615 L 14.625142,30.924773 L 22.498779,23.161550 L 22.822481,17.071994 C 25.040489,14.965954 27.933993,11.878968 29.529322,9.6884111 C 31.124649,7.4978554 31.271708,3.8975099 31.301736,1.8572079 z "
       id="path2130"
       sodipodi:nodetypes="czccccccccczc" />
    <path
       style="opacity:0.41666666;fill:url(#linearGradient6521);fill-opacity:1.0000000;fill-rule:evenodd;stroke:none;stroke-width:1.0000000px;stroke-linecap:butt;stroke-linejoin:miter;stroke-opacity:1.0000000"
       d="M 22.583276,10.653415 C 20.993227,11.047618 17.493780,12.791661 15.240154,14.451773 C 12.986530,16.111886 11.978727,17.688070 9.0615254,20.614093 C 9.1394488,21.707697 9.2173703,22.801300 9.2952937,23.894904 C 10.451732,24.186263 11.608170,24.477624 12.764609,24.768984 C 15.680007,21.786463 17.301381,20.789762 18.937826,18.437169 C 20.574270,16.084574 22.225785,12.376084 22.583276,10.653415 z "
       id="path2896"
       sodipodi:nodetypes="czccczc" />
    <path
       sodipodi:nodetypes="czccczc"
       id="path3648"
       d="M 22.583276,10.653415 C 20.993227,11.047618 17.493780,12.791661 15.240154,14.451773 C 12.986530,16.111886 11.978727,17.688070 9.0615254,20.614093 C 9.1394488,21.707697 9.2173703,22.801300 9.2952937,23.894904 C 10.451732,24.186263 11.608170,24.477624 12.764609,24.768984 C 15.680007,21.786463 17.301381,20.789762 18.937826,18.437169 C 20.574270,16.084574 22.225785,12.376084 22.583276,10.653415 z "
       style="opacity:0.043859605;fill:url(#linearGradient6518);fill-opacity:1.0000000;fill-rule:evenodd;stroke:none;stroke-width:1.0000000px;stroke-linecap:butt;stroke-linejoin:miter;stroke-opacity:1.0000000" />
    <path
       style="opacity:0.043859605;fill:url(#linearGradient6515);fill-opacity:1.0000000;fill-rule:evenodd;stroke:none;stroke-width:1.0000000px;stroke-linecap:butt;stroke-linejoin:miter;stroke-opacity:1.0000000"
       d="M 21.622304,11.630362 C 20.032255,12.024565 17.493780,12.791661 15.240154,14.451773 C 12.986530,16.111886 11.978727,17.688070 9.0615254,20.614093 C 9.1394488,21.707697 9.2173703,22.801300 9.2952937,23.894904 C 10.451732,24.186263 11.608170,24.477624 12.764609,24.768984 C 15.680007,21.786463 17.301381,20.789762 18.937826,18.437169 C 20.574270,16.084574 21.264813,13.353031 21.622304,11.630362 z "
       id="path3664"
       sodipodi:nodetypes="czccczc" />
    <path
       sodipodi:nodetypes="czccczc"
       id="path3666"
       d="M 20.005359,13.171469 C 18.415310,13.565672 17.493780,12.791661 15.240154,14.451773 C 12.986530,16.111886 11.978727,17.688070 9.0615254,20.614093 C 9.1394488,21.707697 9.2173703,22.801300 9.2952937,23.894904 C 10.451732,24.186263 11.608170,24.477624 12.764609,24.768984 C 15.680007,21.786463 17.301381,20.789762 18.937826,18.437169 C 20.574270,16.084574 19.647868,14.894138 20.005359,13.171469 z "
       style="opacity:0.043859605;fill:url(#linearGradient6512);fill-opacity:1.0000000;fill-rule:evenodd;stroke:none;stroke-width:1.0000000px;stroke-linecap:butt;stroke-linejoin:miter;stroke-opacity:1.0000000" />
    <path
       style="opacity:0.043859605;fill:url(#linearGradient6509);fill-opacity:1.0000000;fill-rule:evenodd;stroke:none;stroke-width:1.0000000px;stroke-linecap:butt;stroke-linejoin:miter;stroke-opacity:1.0000000"
       d="M 18.740921,14.456927 C 17.150873,14.851129 15.217793,15.105483 12.964167,16.765596 C 10.710543,18.425709 11.978727,17.688070 9.0615254,20.614093 C 9.1394488,21.707697 9.2173703,22.801300 9.2952937,23.894904 C 10.451732,24.186263 11.608170,24.477624 12.764609,24.768984 C 15.680007,21.786463 15.025394,23.103585 16.661839,20.750991 C 18.298284,18.398396 18.383431,16.179595 18.740921,14.456927 z "
       id="path3668"
       sodipodi:nodetypes="czccczc" />
    <path
       sodipodi:nodetypes="czccczc"
       id="path3670"
       d="M 17.729372,15.485292 C 16.139323,15.879494 14.206243,16.133849 11.952618,17.793961 C 9.6989934,19.454074 11.978727,17.688070 9.0615254,20.614093 C 9.1394488,21.707697 9.2173703,22.801300 9.2952937,23.894904 C 10.451732,24.186263 11.608170,24.477624 12.764609,24.768984 C 15.680007,21.786463 14.013844,24.131950 15.650289,21.779357 C 17.286734,19.426761 17.371881,17.207960 17.729372,15.485292 z "
       style="opacity:0.043859605;fill:url(#linearGradient6506);fill-opacity:1.0000000;fill-rule:evenodd;stroke:none;stroke-width:1.0000000px;stroke-linecap:butt;stroke-linejoin:miter;stroke-opacity:1.0000000" />
    <path
       sodipodi:nodetypes="czccccccccczc"
       id="path3690"
       d="M 31.301736,1.8572079 C 29.352552,1.8290199 25.980842,1.8247127 23.771854,3.4829411 C 21.562866,5.1411694 18.358280,8.2434387 16.185073,10.630594 L 10.885729,10.553957 L 3.1248995,18.604670 L 9.0144610,18.485657 L 9.1652269,24.328820 L 14.674305,24.933615 L 14.625142,30.924773 L 22.498779,23.161550 L 22.822481,17.071994 C 25.040489,14.965954 27.933993,11.878968 29.529322,9.6884111 C 31.124649,7.4978554 31.271708,3.8975099 31.301736,1.8572079 z "
       style="fill:none;fill-opacity:1.0000000;fill-rule:evenodd;stroke:none;stroke-width:1.3880099px;stroke-linecap:butt;stroke-linejoin:round;stroke-opacity:1.0000000" />
    <path
       sodipodi:nodetypes="czccccccccczc"
       id="path3692"
       d="M 31.301736,1.8572079 C 29.352552,1.8290199 25.980842,1.8247127 23.771854,3.4829411 C 21.562866,5.1411694 18.358280,8.2434387 16.185073,10.630594 L 10.885729,10.553957 L 3.1248995,18.604670 L 9.0144610,18.485657 L 9.1652269,24.328820 L 14.674305,24.933615 L 14.625142,30.924773 L 22.498779,23.161550 L 22.822481,17.071994 C 25.040489,14.965954 27.933993,11.878968 29.529322,9.6884111 C 31.124649,7.4978554 31.271708,3.8975099 31.301736,1.8572079 z "
       style="opacity:0.52631581;fill:url(#linearGradient6502);fill-opacity:1.0000000;fill-rule:evenodd;stroke:none;stroke-width:1.3880000;stroke-linecap:butt;stroke-linejoin:round;stroke-miterlimit:4.0000000;stroke-dasharray:none;stroke-opacity:1.0000000" />
    <path
       style="fill:url(#linearGradient6499);fill-opacity:1.0000000;fill-rule:evenodd;stroke:none;stroke-width:1.0000000px;stroke-linecap:butt;stroke-linejoin:miter;stroke-opacity:1.0000000"
       d="M 20.796534,6.5504602 C 20.796534,6.5504602 26.446907,6.6301879 26.446907,6.6301879 L 26.407725,12.698407 L 24.755371,14.490480 L 25.047392,8.0529678 L 19.388675,7.9328886 L 20.796534,6.5504602 z "
       id="path5240"
       sodipodi:nodetypes="ccccccc" />
    <path
       style="opacity:0.44736841;fill:url(#linearGradient6496);fill-opacity:1.0000000;fill-rule:evenodd;stroke:none;stroke-width:1.0000000px;stroke-linecap:butt;stroke-linejoin:miter;stroke-opacity:1.0000000"
       d="M 30.931973,2.5185896 C 30.692078,2.2600283 27.938820,2.1941798 22.643332,6.5728114 C 17.347844,10.951443 9.3181721,20.119486 9.3181721,20.119486 L 8.7588197,22.697911 C 8.7588197,22.697911 18.167584,12.630294 23.602910,7.6070564 C 29.038236,2.5838184 31.171867,2.7771508 30.931973,2.5185896 z "
       id="path3672"
       sodipodi:nodetypes="czcczz" />
    <path
       id="path5284"
       d="M 17.768754,9.3960200 C 17.768754,9.3960200 23.647879,9.4757467 23.647879,9.4757467 L 23.677321,15.589717 L 22.301873,16.956581 L 22.248364,10.898527 L 16.316303,10.986568 L 17.768754,9.3960200 z "
       style="fill:url(#linearGradient6493);fill-opacity:1.0000000;fill-rule:evenodd;stroke:none;stroke-width:1.0000000px;stroke-linecap:butt;stroke-linejoin:miter;stroke-opacity:1.0000000"
       sodipodi:nodetypes="ccccccc" />
    <path
       style="opacity:0.043859605;fill:url(#linearGradient6490);fill-opacity:1.0000000;fill-rule:evenodd;stroke:none;stroke-width:1.0000000px;stroke-linecap:butt;stroke-linejoin:miter;stroke-opacity:1.0000000"
       d="M 20.941149,12.220123 C 19.262510,12.704389 18.331767,11.939743 15.906293,13.774561 C 13.480819,15.609380 12.361125,17.299315 9.1888164,20.484686 C 9.2243095,21.621425 9.2598006,22.758164 9.2952937,23.894904 C 10.491870,24.145459 11.688445,24.396015 12.885022,24.646569 C 16.057819,21.402369 17.794523,20.288422 19.603964,17.759957 C 21.413404,15.231491 20.495068,14.032855 20.941149,12.220123 z "
       id="path3708"
       sodipodi:nodetypes="czccczc" />
    <path
       sodipodi:nodetypes="czccczc"
       id="path3710"
       d="M 19.565415,13.618727 C 17.886775,14.102993 15.855445,14.457230 13.429971,16.292049 C 11.004497,18.126868 12.361125,17.299315 9.1888164,20.484686 C 9.2243095,21.621425 9.2598006,22.758164 9.2952937,23.894904 C 10.491870,24.145459 11.688445,24.396015 12.885022,24.646569 C 16.057819,21.402369 15.318203,22.805909 17.127642,20.277444 C 18.937082,17.748978 19.119333,15.431459 19.565415,13.618727 z "
       style="opacity:0.043859605;fill:url(#linearGradient6487);fill-opacity:1.0000000;fill-rule:evenodd;stroke:none;stroke-width:1.0000000px;stroke-linecap:butt;stroke-linejoin:miter;stroke-opacity:1.0000000" />
    <path
       style="opacity:0.043859605;fill:url(#linearGradient6484);fill-opacity:1.0000000;fill-rule:evenodd;stroke:none;stroke-width:1.0000000px;stroke-linecap:butt;stroke-linejoin:miter;stroke-opacity:1.0000000"
       d="M 18.464827,14.737610 C 16.786189,15.221875 14.754858,15.576114 12.329384,17.410932 C 9.9039101,19.245751 12.361125,17.299315 9.1888164,20.484686 C 9.2243095,21.621425 9.2598006,22.758164 9.2952937,23.894904 C 10.491870,24.145459 11.688445,24.396015 12.885022,24.646569 C 16.057819,21.402369 14.217615,23.924792 16.027055,21.396328 C 17.836495,18.867861 18.018747,16.550341 18.464827,14.737610 z "
       id="path3712"
       sodipodi:nodetypes="czccczc" />
    <path
       sodipodi:nodetypes="czccczc"
       id="path3720"
       d="M 21.798558,11.348461 C 20.038749,11.915245 19.099565,11.159181 16.516635,13.154072 C 13.933706,15.148964 12.711494,16.943121 9.3054455,20.366118 C 9.3020619,21.542380 9.2986773,22.718641 9.2952937,23.894904 C 10.528646,24.108072 11.761997,24.321241 12.995349,24.534408 C 16.403988,21.050447 18.246361,19.829074 20.214307,17.139468 C 22.182252,14.449862 21.271307,13.243711 21.798558,11.348461 z "
       style="opacity:0.043859605;fill:url(#linearGradient6481);fill-opacity:1.0000000;fill-rule:evenodd;stroke:none;stroke-width:1.0000000px;stroke-linecap:butt;stroke-linejoin:miter;stroke-opacity:1.0000000" />
    <path
       style="opacity:0.043859605;fill:url(#linearGradient6478);fill-opacity:1.0000000;fill-rule:evenodd;stroke:none;stroke-width:1.0000000px;stroke-linecap:butt;stroke-linejoin:miter;stroke-opacity:1.0000000"
       d="M 20.320848,12.850735 C 18.561040,13.417520 16.439688,13.863276 13.856759,15.858165 C 11.273831,17.853057 12.711494,16.943121 9.3054455,20.366118 C 9.3020619,21.542380 9.2986773,22.718641 9.2952937,23.894904 C 10.528646,24.108072 11.761997,24.321241 12.995349,24.534408 C 16.403988,21.050447 15.586486,22.533166 17.554431,19.843561 C 19.522376,17.153955 19.793597,14.745986 20.320848,12.850735 z "
       id="path3722"
       sodipodi:nodetypes="czccczc" />
    <path
       sodipodi:nodetypes="czccczc"
       id="path3724"
       d="M 19.138682,14.052554 C 17.378873,14.619339 15.257520,15.065095 12.674592,17.059985 C 10.091663,19.054877 12.711494,16.943121 9.3054455,20.366118 C 9.3020619,21.542380 9.2986773,22.718641 9.2952937,23.894904 C 10.528646,24.108072 11.761997,24.321241 12.995349,24.534408 C 16.403988,21.050447 14.404318,23.734985 16.372263,21.045381 C 18.340208,18.355774 18.611431,15.947805 19.138682,14.052554 z "
       style="opacity:0.043859605;fill:url(#linearGradient6475);fill-opacity:1.0000000;fill-rule:evenodd;stroke:none;stroke-width:1.0000000px;stroke-linecap:butt;stroke-linejoin:miter;stroke-opacity:1.0000000" />
    <path
       style="opacity:0.47368422;fill:url(#linearGradient6472);fill-opacity:1.0000000;fill-rule:evenodd;stroke:none;stroke-width:1.0000000px;stroke-linecap:butt;stroke-linejoin:miter;stroke-opacity:1.0000000"
       d="M 22.583276,10.653415 C 18.349336,11.561487 13.250149,15.624090 9.5191772,20.221023 C 9.3376988,21.075442 9.5183952,20.515480 9.3369169,21.369899 C 16.385056,14.216470 19.167028,12.158179 22.583276,10.653415 z "
       id="path3732"
       sodipodi:nodetypes="cccc" />
    <path
       style="fill:url(#linearGradient6469);fill-opacity:1.0000000;fill-rule:evenodd;stroke:none;stroke-width:1.0000000px;stroke-linecap:butt;stroke-linejoin:miter;stroke-opacity:1.0000000"
       d="M 16.745395,10.766626 C 11.071334,10.513078 10.920561,10.556119 9.6634787,11.733798 C 8.4063967,12.911478 3.4701824,18.030670 8.6787842,15.071280 C 13.801016,12.155074 14.655615,12.867871 16.745395,10.766626 z "
       id="path4480"
       sodipodi:nodetypes="czzc" />
    <path
       sodipodi:nodetypes="cczc"
       id="path5216"
       d="M 22.718503,16.506024 L 22.408144,23.699389 C 21.033571,24.607022 18.471341,25.845565 18.415550,24.461543 C 18.359755,23.077522 20.481176,18.370373 22.718503,16.506024 z "
       style="fill:url(#linearGradient6466);fill-opacity:1.0000000;fill-rule:evenodd;stroke:none;stroke-width:1.0000000px;stroke-linecap:butt;stroke-linejoin:miter;stroke-opacity:1.0000000" />
    <path
       style="opacity:0.39473680;fill:url(#linearGradient6463);fill-opacity:1.0000000;fill-rule:evenodd;stroke:none;stroke-width:1.0000000px;stroke-linecap:butt;stroke-linejoin:miter;stroke-opacity:1.0000000"
       d="M 28.214438,6.0062234 C 28.831933,6.4336134 28.066174,6.6179030 27.513845,6.6559086 C 26.655193,6.7147084 23.772982,3.8963184 24.446458,3.3948808 C 25.029945,2.9604431 25.182279,2.4865857 25.372167,3.0105227 C 25.718435,3.9659487 27.344401,5.4040410 28.214438,6.0062234 z "
       id="path5220"
       sodipodi:nodetypes="cssss" />
    <path
       sodipodi:nodetypes="cssss"
       id="path6440"
       d="M 27.765457,6.4475154 C 28.382952,6.8749054 28.066174,6.6179030 27.513845,6.6559086 C 26.655193,6.7147084 23.772982,3.8963184 24.446458,3.3948808 C 24.592330,3.2862714 24.746651,3.2100106 24.794123,3.3409948 C 25.140390,4.2964208 26.895421,5.8453330 27.765457,6.4475154 z "
       style="opacity:0.39473680;fill:url(#linearGradient6460);fill-opacity:1.0000000;fill-rule:evenodd;stroke:none;stroke-width:1.0000000px;stroke-linecap:butt;stroke-linejoin:miter;stroke-opacity:1.0000000" />
    <path
       id="path5288"
       d="M 31.312500,1.3750000 C 29.356020,1.3467065 25.865603,1.2944966 23.468750,3.0937500 C 21.255696,4.7550303 18.186578,7.7713789 16.000000,10.156250 L 10.906250,10.062500 C 10.764286,10.056518 10.626966,10.113735 10.531250,10.218750 L 2.7812500,18.281250 C 2.6483347,18.419695 2.6106522,18.624002 2.6854322,18.800755 C 2.7602123,18.977507 2.9330819,19.092734 3.1250000,19.093750 L 8.5312500,18.968750 L 8.6875000,24.343750 C 8.6923073,24.588766 8.8808967,24.790826 9.1250000,24.812500 L 14.187500,25.343750 L 14.156250,30.906250 C 14.144049,31.103877 14.254439,31.288720 14.434218,31.371695 C 14.613997,31.454670 14.826276,31.418751 14.968750,31.281250 L 22.843750,23.500000 C 22.921765,23.414332 22.966162,23.303339 22.968750,23.187500 L 23.312500,17.250000 C 25.527472,15.132428 28.310511,12.159869 29.906250,9.9687500 C 31.640657,7.5872238 31.751005,3.9300512 31.781250,1.8750000 C 31.786641,1.7462010 31.740003,1.6206461 31.651835,1.5266002 C 31.563667,1.4325542 31.441379,1.3779212 31.312500,1.3750000 L 31.312500,1.3750000 z M 30.781250,2.3750000 C 30.727029,4.4409105 30.510317,7.5469706 29.156250,9.4062500 C 27.597185,11.547013 24.699326,14.630448 22.500000,16.718750 C 22.410513,16.799592 22.354732,16.911155 22.343750,17.031250 L 22.031250,22.937500 L 15.093750,29.781250 L 15.156250,24.937500 C 15.151443,24.692484 14.962853,24.490424 14.718750,24.468750 L 9.6562500,23.906250 L 9.5000000,18.468750 C 9.4970788,18.339871 9.4424458,18.217583 9.3483998,18.129415 C 9.2543539,18.041247 9.1287990,17.994609 9.0000000,18.000000 L 4.2812500,18.093750 L 11.062500,11.031250 L 16.187500,11.125000 C 16.318616,11.122060 16.442821,11.065603 16.531250,10.968750 C 18.685688,8.6022113 21.905134,5.4944770 24.062500,3.8750000 C 25.941717,2.4643221 28.813898,2.3643025 30.781250,2.3750000 z "
       style="opacity:1.0000000;fill:url(#linearGradient6457);fill-opacity:1.0000000;fill-rule:evenodd;stroke:none;stroke-width:0.95999998;stroke-linecap:butt;stroke-linejoin:round;stroke-miterlimit:4.0000000;stroke-dasharray:none;stroke-opacity:1.0000000" />
    <path
       sodipodi:nodetypes="cccc"
       id="path5865"
       d="M 21.191623,12.124694 C 18.474031,14.259291 14.027388,18.745226 9.8645671,22.953495 C 9.6830887,23.807914 9.6995671,23.099377 9.7987823,23.498963 C 16.846921,16.345533 18.301313,15.128469 21.191623,12.124694 z "
       style="opacity:0.47368422;fill:url(#linearGradient6454);fill-opacity:1.0000000;fill-rule:evenodd;stroke:none;stroke-width:1.0000000px;stroke-linecap:butt;stroke-linejoin:miter;stroke-opacity:1.0000000" />
    <path
       style="opacity:0.47368422;fill:url(#radialGradient6451);fill-opacity:1.0000000;fill-rule:evenodd;stroke:none;stroke-width:1.0000000px;stroke-linecap:butt;stroke-linejoin:miter;stroke-opacity:1.0000000"
       d="M 21.191623,12.124694 C 18.474031,14.259291 14.027388,18.745226 9.8645671,22.953495 C 9.6830887,23.807914 9.6995671,23.099377 9.7987823,23.498963 C 16.846921,16.345533 18.301313,15.128469 21.191623,12.124694 z "
       id="path4972"
       sodipodi:nodetypes="cccc" />
    <path
       sodipodi:nodetypes="cccc"
       id="path4976"
       d="M 22.583276,10.653415 C 18.349336,11.561487 13.250149,15.624090 9.5191772,20.221023 C 9.3376988,21.075442 9.5183952,20.515480 9.3369169,21.369899 C 16.385056,14.216470 19.167028,12.158179 22.583276,10.653415 z "
       style="opacity:0.47368422;fill:url(#radialGradient6448);fill-opacity:1.0000000;fill-rule:evenodd;stroke:none;stroke-width:1.0000000px;stroke-linecap:butt;stroke-linejoin:miter;stroke-opacity:1.0000000" />
    <path
       sodipodi:nodetypes="czcczz"
       id="path4980"
       d="M 30.845603,2.2594803 C 30.605708,2.0009190 27.127574,2.7798857 21.832086,7.1585173 C 16.536598,11.537150 9.3181721,20.119486 9.3181721,20.119486 L 8.7588197,22.697911 C 8.7588197,22.697911 17.356338,13.216001 22.791664,8.1927623 C 28.226990,3.1695243 31.085497,2.5180415 30.845603,2.2594803 z "
       style="opacity:0.44736841;fill:url(#radialGradient6445);fill-opacity:1.0000000;fill-rule:evenodd;stroke:none;stroke-width:1.0000000px;stroke-linecap:butt;stroke-linejoin:miter;stroke-opacity:1.0000000" />
    <rect
       style="opacity:1.0000000;fill:url(#linearGradient2664);fill-opacity:0.51101321;fill-rule:evenodd;stroke:none;stroke-width:1.0000000;stroke-linecap:round;stroke-linejoin:round;stroke-miterlimit:4.0000000;stroke-dasharray:none;stroke-dashoffset:0.0000000;stroke-opacity:1.0000000"
       id="rect2662"
       width="9.9534883"
       height="14.604651"
       x="-16.093023"
       y="11.906977"
       rx="4.6321034"
       ry="4.2232156" />
  </g>
</svg>
