<?xml version="1.0" encoding="UTF-8" standalone="no"?>
<!DOCTYPE svg PUBLIC "-//W3C//DTD SVG 20010904//EN"
"http://www.w3.org/TR/2001/REC-SVG-20010904/DTD/svg10.dtd">
<svg
   width="32.000000mm"
   height="32.000000mm"
   viewBox="-0.122 0.464 116 122"
   overflow="visible"
   enable-background="new -0.122 0.464 116 122"
   xml:space="preserve"
   xmlns="http://www.w3.org/2000/svg"
   xmlns:xml="http://www.w3.org/XML/1998/namespace"
   xmlns:a="http://ns.adobe.com/AdobeSVGViewerExtensions/3.0/"
   xmlns:sodipodi="http://sodipodi.sourceforge.net/DTD/sodipodi-0.dtd"
   xmlns:inkscape="http://www.inkscape.org/namespaces/inkscape"
   xmlns:xlink="http://www.w3.org/1999/xlink"
   id="svg1"
   sodipodi:version="0.32"
   inkscape:version="0.40"
   xmlns:rdf="http://www.w3.org/1999/02/22-rdf-syntax-ns#"
   xmlns:cc="http://web.resource.org/cc/"
   xmlns:dc="http://purl.org/dc/elements/1.1/"
   sodipodi:docname="crsc-app-colors.svgz"
   sodipodi:docbase="/home/jr/tmp/colour"><defs
   id="defs156">
  <linearGradient
     inkscape:collect="always"
     xlink:href="#XMLID_1_"
     id="linearGradient1212"
     gradientUnits="userSpaceOnUse"
     x1="39.2935"
     y1="25.1079"
     x2="34.8222"
     y2="121.414" />
  <linearGradient
     inkscape:collect="always"
     xlink:href="#XMLID_2_"
     id="linearGradient1213"
     gradientUnits="userSpaceOnUse"
     x1="59.6118"
     y1="26.0454"
     x2="55.1408"
     y2="122.347" />
  <linearGradient
     inkscape:collect="always"
     xlink:href="#XMLID_3_"
     id="linearGradient1214"
     gradientUnits="userSpaceOnUse"
     x1="5.9111"
     y1="70.5562"
     x2="109.016"
     y2="40.9913" />
  <linearGradient
     inkscape:collect="always"
     xlink:href="#XMLID_4_"
     id="linearGradient1215"
     gradientUnits="userSpaceOnUse"
     x1="10.6279"
     y1="69.8853"
     x2="107.473"
     y2="42.1154" />
  <linearGradient
     inkscape:collect="always"
     xlink:href="#XMLID_5_"
     id="linearGradient1216"
     gradientUnits="userSpaceOnUse"
     x1="58.0771"
     y1="22.0371"
     x2="58.0771"
     y2="114.324" />
  <linearGradient
     inkscape:collect="always"
     xlink:href="#XMLID_6_"
     id="linearGradient1217"
     gradientUnits="userSpaceOnUse"
     x1="34.9927"
     y1="22.04"
     x2="34.9927"
     y2="114.32" />
  <linearGradient
     inkscape:collect="always"
     xlink:href="#XMLID_7_"
     id="linearGradient1218"
     gradientUnits="userSpaceOnUse"
     x1="23.812"
     y1="63.0708"
     x2="23.812"
     y2="33.8354" />
  <linearGradient
     inkscape:collect="always"
     xlink:href="#XMLID_8_"
     id="linearGradient1219"
     gradientUnits="userSpaceOnUse"
     x1="50.0781"
     y1="43.0371"
     x2="54.5152"
     y2="4.6629" />
  <linearGradient
     inkscape:collect="always"
     xlink:href="#XMLID_9_"
     id="linearGradient1220"
     gradientUnits="userSpaceOnUse"
     x1="87.2188"
     y1="30.395"
     x2="87.2188"
     y2="3.5658" />
</defs>
<metadata
   id="metadata155">
  <rdf:RDF
     id="RDF157">
    <cc:Work
       rdf:about=""
       id="Work158">
      <dc:format
         id="format159">image/svg+xml</dc:format>
      <dc:type
         id="type161"
         rdf:resource="http://purl.org/dc/dcmitype/StillImage" />
    </cc:Work>
  </rdf:RDF>
</metadata>
<sodipodi:namedview
   id="base"
   pagecolor="#ffffff"
   bordercolor="#666666"
   borderopacity="1.0"
   inkscape:pageopacity="0.0"
   inkscape:pageshadow="2"
   inkscape:zoom="3.8729508"
   inkscape:cx="46.400002"
   inkscape:cy="47.721588"
   inkscape:window-width="781"
   inkscape:window-height="631"
   inkscape:window-x="0"
   inkscape:window-y="0"
   inkscape:current-layer="svg1" />

	<g
   id="Layer_1_2_"
   transform="matrix(1.041744,0.000000,0.000000,0.997155,-2.423159,0.613833)">
		<path
   d="M 33.135000,99.523000 C 37.248000,100.10400 41.940000,96.654000 44.183000,91.648000 C 43.930000,87.779000 41.802000,84.835000 38.402000,84.358000 C 34.608000,83.827000 30.352000,86.520000 27.734000,90.714000 C 27.273000,95.286000 29.384000,98.997000 33.135000,99.523000 z "
   style="fill:none"
   id="path5" />

		<linearGradient
   id="XMLID_1_"
   gradientUnits="userSpaceOnUse"
   x1="39.293499"
   y1="25.107901"
   x2="34.822201"
   y2="121.41400">
			<stop
   offset="0.0056"
   style="stop-color:rgb(255,174,33)"
   id="stop9" />

			<stop
   offset="0.9888"
   style="stop-color:rgb(255,255,189)"
   id="stop11" />

			<a:midPointStop
   offset="0.0056"
   style="stop-color:#FFAE21"
   id="midPointStop13" />

			<a:midPointStop
   offset="0.5"
   style="stop-color:#FFAE21"
   id="midPointStop15" />

			<a:midPointStop
   offset="0.9888"
   style="stop-color:#FFFFBD"
   id="midPointStop17" />

		</linearGradient>

		<path
   d="M 38.403000,84.358000 C 41.803000,84.836000 43.931000,87.779000 44.184000,91.648000 C 44.409000,91.146000 44.618000,90.634000 44.790000,90.103000 C 46.680000,84.274000 44.533000,79.000000 40.005000,78.365000 C 35.477000,77.731000 30.241000,81.967000 28.351000,87.791000 C 28.027000,88.790000 27.830000,89.770000 27.734000,90.715000 C 30.353000,86.520000 34.608000,83.827000 38.403000,84.358000 z "
   style="fill:url(#linearGradient1212)"
   id="path20" />

		<linearGradient
   id="XMLID_2_"
   gradientUnits="userSpaceOnUse"
   x1="59.611801"
   y1="26.045401"
   x2="55.140800"
   y2="122.34700">
			<stop
   offset="0.0056"
   style="stop-color:rgb(255,174,33)"
   id="stop24" />

			<stop
   offset="0.9888"
   style="stop-color:rgb(255,255,189)"
   id="stop26" />

			<a:midPointStop
   offset="0.0056"
   style="stop-color:#FFAE21"
   id="midPointStop28" />

			<a:midPointStop
   offset="0.5"
   style="stop-color:#FFAE21"
   id="midPointStop30" />

			<a:midPointStop
   offset="0.9888"
   style="stop-color:#FFFFBD"
   id="midPointStop32" />

		</linearGradient>

		<path
   d="M 103.08800,9.3240000 C 101.90900,8.3520000 100.67800,7.4720000 99.410000,6.6550000 C 99.899000,7.0190000 100.38800,7.3830000 100.86100,7.7730000 C 128.13100,30.260000 102.86000,78.268000 96.810000,83.648000 C 90.761000,89.035000 88.410000,90.371000 81.811000,91.385000 C 75.209000,92.398000 66.064000,84.735000 58.900000,91.070000 C 51.733000,97.403000 52.471000,103.75000 49.103000,108.66500 C 46.959000,111.79100 42.755000,113.04200 38.886000,113.80200 C 30.615000,113.14800 23.005000,110.26400 16.865000,104.95400 C -2.8670000,87.899000 -0.096000000,52.160000 23.036000,25.399000 C 24.181000,24.075000 25.361000,22.811000 26.558000,21.582000 C 24.427000,23.610000 22.353000,25.760000 20.366000,28.060000 C -4.2210000,56.505000 -7.1670000,94.492000 13.807000,112.61900 C 20.333000,118.26300 28.422000,121.32800 37.213000,122.02300 C 41.326000,121.21500 45.794000,119.88500 48.073000,116.56300 C 51.653000,111.33800 50.869000,104.59200 58.486000,97.861000 C 66.101000,91.128000 75.822000,99.273000 82.839000,98.197000 C 89.854000,97.119000 92.353000,95.698000 98.782000,89.972000 C 105.21200,84.254000 132.07300,33.226000 103.08800,9.3240000 z "
   style="fill:url(#linearGradient1213)"
   id="path35" />

		<linearGradient
   id="XMLID_3_"
   gradientUnits="userSpaceOnUse"
   x1="5.9110999"
   y1="70.556198"
   x2="109.01600"
   y2="40.991299">
			<stop
   offset="0.0056"
   style="stop-color:rgb(255,174,33)"
   id="stop39" />

			<stop
   offset="0.9888"
   style="stop-color:rgb(255,255,189)"
   id="stop41" />

			<a:midPointStop
   offset="0.0056"
   style="stop-color:#FFAE21"
   id="midPointStop43" />

			<a:midPointStop
   offset="0.5"
   style="stop-color:#FFAE21"
   id="midPointStop45" />

			<a:midPointStop
   offset="0.9888"
   style="stop-color:#FFFFBD"
   id="midPointStop47" />

		</linearGradient>

		<path
   d="M 16.865000,104.95300 C 23.005000,110.26300 30.615000,113.14600 38.886000,113.80100 C 42.756000,113.04100 46.959000,111.79000 49.103000,108.66400 C 52.471000,103.74900 51.733000,97.402000 58.900000,91.069000 C 66.064000,84.734000 75.210000,92.397000 81.811000,91.384000 C 88.410000,90.369000 90.761000,89.033000 96.810000,83.647000 C 102.86000,78.267000 128.13000,30.259000 100.86100,7.7720000 C 100.38700,7.3820000 99.899000,7.0180000 99.410000,6.6540000 C 79.539000,-6.1650000 49.347000,-0.10400000 26.558000,21.582000 C 25.360000,22.811000 24.180000,24.075000 23.036000,25.399000 C -0.096000000,52.160000 -2.8670000,87.899000 16.865000,104.95300 z M 26.015000,94.376000 C 26.440000,93.066000 27.032000,91.840000 27.734000,90.714000 C 27.829000,89.769000 28.026000,88.789000 28.351000,87.790000 C 30.241000,81.966000 35.477000,77.730000 40.005000,78.364000 C 44.533000,79.000000 46.680000,84.274000 44.790000,90.103000 C 44.618000,90.634000 44.409000,91.146000 44.184000,91.648000 C 44.289000,93.254000 44.079000,95.017000 43.489000,96.835000 C 41.477000,103.02700 35.911000,107.52700 31.101000,106.84800 C 26.289000,106.17200 24.003000,100.57200 26.015000,94.376000 z "
   style="fill:url(#linearGradient1214)"
   id="path50" />

		<linearGradient
   id="XMLID_4_"
   gradientUnits="userSpaceOnUse"
   x1="10.627900"
   y1="69.885300"
   x2="107.47300"
   y2="42.115398">
			<stop
   offset="0.0056"
   style="stop-color:rgb(255,174,33)"
   id="stop54" />

			<stop
   offset="0.9888"
   style="stop-color:rgb(255,255,189)"
   id="stop56" />

			<a:midPointStop
   offset="0.0056"
   style="stop-color:#FFAE21"
   id="midPointStop58" />

			<a:midPointStop
   offset="0.5"
   style="stop-color:#FFAE21"
   id="midPointStop60" />

			<a:midPointStop
   offset="0.9888"
   style="stop-color:#FFFFBD"
   id="midPointStop62" />

		</linearGradient>

		<path
   d="M 16.865000,105.06000 C 23.005000,110.30500 30.615000,113.15400 38.886000,113.80000 C 42.756000,113.04900 46.959000,111.81400 49.103000,108.72600 C 52.471000,103.87000 51.733000,97.600000 58.900000,91.344000 C 66.064000,85.085000 75.210000,92.656000 81.811000,91.656000 C 88.410000,90.653000 90.761000,89.334000 96.810000,84.011000 C 102.86000,78.697000 128.13000,31.269000 100.86100,9.0540000 C 100.38700,8.6690000 99.899000,8.3090000 99.410000,7.9500000 C 79.539000,-4.7140000 49.347000,1.2730000 26.558000,22.697000 C 25.360000,23.911000 24.180000,25.159000 23.036000,26.468000 C -0.096000000,52.905000 -2.8670000,88.212000 16.865000,105.06000 z M 26.015000,94.612000 C 26.440000,93.318000 27.032000,92.106000 27.734000,90.994000 C 27.829000,90.060000 28.026000,89.093000 28.351000,88.105000 C 30.241000,82.351000 35.477000,78.167000 40.005000,78.793000 C 44.532000,79.421000 46.680000,84.631000 44.790000,90.389000 C 44.618000,90.914000 44.409000,91.420000 44.184000,91.915000 C 44.289000,93.502000 44.079000,95.244000 43.489000,97.039000 C 41.477000,103.15600 35.911000,107.60200 31.101000,106.93100 C 26.289000,106.26400 24.003000,100.73200 26.015000,94.612000 z "
   style="fill:url(#linearGradient1215)"
   id="path65" />

		<linearGradient
   id="XMLID_5_"
   gradientUnits="userSpaceOnUse"
   x1="58.077099"
   y1="22.037100"
   x2="58.077099"
   y2="114.32400">
			<stop
   offset="0"
   style="stop-color:rgb(116,68,38)"
   id="stop69" />

			<stop
   offset="1"
   style="stop-color:rgb(222,151,43)"
   id="stop71" />

			<a:midPointStop
   offset="0"
   style="stop-color:#744426"
   id="midPointStop73" />

			<a:midPointStop
   offset="0.5"
   style="stop-color:#744426"
   id="midPointStop75" />

			<a:midPointStop
   offset="1"
   style="stop-color:#DE972B"
   id="midPointStop77" />

		</linearGradient>

		<path
   d="M 20.366000,28.060000 C 44.951000,-0.39200000 81.696000,-8.3130000 103.08800,9.3240000 C 132.06800,33.226000 105.21200,84.250000 98.782000,89.972000 C 92.352000,95.698000 89.853000,97.116000 82.839000,98.197000 C 75.822000,99.273000 66.102000,91.125000 58.485000,97.861000 C 50.870000,104.59700 51.652000,111.33900 48.071000,116.55900 C 45.792000,119.88500 41.326000,121.21500 37.214000,122.02300 C 28.422000,121.32800 20.331000,118.26200 13.806000,112.61900 C -7.1690000,94.489000 -4.2210000,56.504000 20.366000,28.060000 M 22.574000,30.185000 C 46.183000,3.6730000 80.744000,-3.7940000 100.38200,12.539000 C 126.99700,34.685000 100.78300,82.188000 94.648000,87.524000 C 88.503000,92.861000 86.138000,94.185000 79.550000,95.209000 C 72.963000,96.231000 64.039000,88.684000 56.767000,94.966000 C 49.498000,101.25100 50.086000,107.51500 46.627000,112.38000 C 44.423000,115.47400 40.216000,116.72100 36.350000,117.48600 C 28.136000,116.86100 20.631000,114.03200 14.644000,108.81100 C -4.5990000,92.015000 -1.0380000,56.695000 22.574000,30.185000"
   style="fill:url(#linearGradient1216);fill-rule:evenodd"
   id="path80" />

		<linearGradient
   id="XMLID_6_"
   gradientUnits="userSpaceOnUse"
   x1="34.992699"
   y1="22.040001"
   x2="34.992699"
   y2="114.32000">
			<stop
   offset="0"
   style="stop-color:rgb(116,68,38)"
   id="stop84" />

			<stop
   offset="1"
   style="stop-color:rgb(222,151,43)"
   id="stop86" />

			<a:midPointStop
   offset="0"
   style="stop-color:#744426"
   id="midPointStop88" />

			<a:midPointStop
   offset="0.5"
   style="stop-color:#744426"
   id="midPointStop90" />

			<a:midPointStop
   offset="1"
   style="stop-color:#DE972B"
   id="midPointStop92" />

		</linearGradient>

		<path
   d="M 38.996000,82.518000 C 44.607000,84.192000 47.392000,91.575000 45.190000,98.955000 C 42.985000,106.33300 36.609000,110.98500 30.995000,109.30900 C 25.379000,107.63300 22.595000,100.24700 24.795000,92.865000 C 26.999000,85.490000 33.375000,80.840000 38.996000,82.518000 M 39.696000,85.211000 C 43.805000,86.562000 44.968000,92.479000 42.280000,98.381000 C 39.592000,104.28600 34.048000,107.99800 29.936000,106.64700 C 25.824000,105.29700 24.662000,99.381000 27.346000,93.477000 C 30.038000,87.573000 35.582000,83.860000 39.696000,85.211000"
   style="fill:url(#linearGradient1217);fill-rule:evenodd"
   id="path95" />

		<path
   d="M 11.149000,55.021000 L 12.230000,56.165000 L 13.442000,57.217000 L 14.679000,58.236000 L 15.814000,59.272000 L 16.731000,60.307000 L 17.332000,61.359000 L 17.591000,62.571000 L 17.558000,64.078000 L 17.328000,65.793000 L 17.037000,67.592000 L 16.838000,69.374000 L 16.919000,71.097000 L 17.572000,72.684000 L 19.100000,73.760000 L 20.981000,73.806000 L 22.406000,72.760000 L 23.376000,71.265000 L 24.140000,69.583000 L 24.830000,67.872000 L 25.511000,66.355000 L 26.191000,65.299000 L 26.754000,64.867000 L 27.125000,64.859000 L 27.626000,65.186000 L 28.285000,65.986000 L 28.959000,67.054000 L 29.638000,68.158000 L 30.450000,69.168000 L 31.877000,69.729000 L 33.113000,68.562000 L 33.551000,66.998000 L 33.410000,65.403000 L 32.969000,63.816000 L 32.385000,62.253000 L 31.802000,60.736000 L 31.344000,59.368000 L 31.135000,58.258000 L 31.213000,57.546000 L 31.288000,57.439000 L 31.762000,57.588000 L 32.562000,57.977000 L 33.540000,58.442000 L 34.701000,58.765000 L 36.034000,58.534000 L 36.993000,57.465000 L 37.600000,56.073000 L 38.122000,54.515000 L 38.560000,52.766000 L 38.860000,50.901000 L 38.978000,49.002000 L 38.850000,47.129000 L 38.401000,45.372000 L 37.512000,43.793000 L 36.151000,42.711000 L 34.546000,42.325000 L 32.928000,42.413000 L 31.349000,42.741000 L 29.841000,43.138000 L 28.460000,43.453000 L 27.312000,43.565000 L 26.496000,43.411000 L 25.906000,42.981000 L 25.365000,42.140000 L 24.891000,40.984000 L 24.455000,39.695000 L 23.989000,38.444000 L 23.291000,37.284000 L 21.963000,36.625000 L 20.426000,37.271000 L 19.361000,38.609000 L 18.835000,40.233000 L 18.626000,41.990000 L 18.570000,43.800000 L 18.556000,45.578000 L 18.472000,47.198000 L 18.237000,48.524000 L 17.835000,49.406000 L 17.313000,49.856000 L 16.557000,50.046000 L 15.509000,50.046000 L 14.300000,49.908000 L 13.041000,49.786000 L 11.737000,49.867000 L 10.511000,50.588000 L 10.039000,52.112000 L 10.339000,53.694000 L 11.149000,55.021000 M 74.400000,15.526000 L 74.144000,17.175000 L 74.595000,18.696000 L 75.444000,19.960000 L 76.460000,21.049000 L 77.462000,22.044000 L 78.307000,22.980000 L 78.847000,23.821000 L 79.026000,24.563000 L 78.866000,25.243000 L 78.349000,25.972000 L 77.492000,26.780000 L 76.461000,27.646000 L 75.425000,28.624000 L 74.571000,29.833000 L 74.244000,31.371000 L 74.771000,33.024000 L 75.914000,34.586000 L 77.418000,36.040000 L 79.200000,37.416000 L 81.168000,38.659000 L 83.223000,39.736000 L 85.284000,40.581000 L 87.256000,41.153000 L 89.120000,41.368000 L 90.757000,41.016000 L 91.689000,39.830000 L 91.835000,38.443000 L 91.673000,37.116000 L 91.444000,35.836000 L 91.321000,34.697000 L 91.408000,33.868000 L 91.726000,33.333000 L 92.392000,32.902000 L 93.445000,32.579000 L 94.767000,32.364000 L 96.238000,32.195000 L 97.742000,31.983000 L 99.211000,31.619000 L 100.56400,30.939000 L 101.58800,29.759000 L 101.96000,28.296000 L 101.62800,26.966000 L 100.90000,25.893000 L 100.01700,24.981000 L 99.102000,24.153000 L 98.275000,23.365000 L 97.671000,22.616000 L 97.343000,21.915000 L 97.256000,21.178000 L 97.355000,20.308000 L 97.601000,19.322000 L 97.900000,18.232000 L 98.160000,17.068000 L 98.257000,15.809000 L 98.024000,14.483000 L 97.354000,13.232000 L 96.379000,12.118000 L 95.252000,11.086000 L 93.973000,10.142000 L 92.555000,9.2930000 L 91.026000,8.6010000 L 89.420000,8.1000000 L 87.751000,7.8270000 L 86.061000,7.8310000 L 84.344000,8.1240000 L 82.600000,8.6480000 L 80.877000,9.3850000 L 79.215000,10.305000 L 77.682000,11.387000 L 76.328000,12.617000 L 75.214000,13.985000 L 74.400000,15.526000 M 49.299000,17.589000 L 48.040000,18.285000 L 46.499000,18.906000 L 44.783000,19.511000 L 42.999000,20.132000 L 41.253000,20.840000 L 39.633000,21.702000 L 38.240000,22.829000 L 37.233000,24.329000 L 36.912000,26.027000 L 37.356000,27.544000 L 38.257000,28.778000 L 39.340000,29.810000 L 40.459000,30.758000 L 41.456000,31.665000 L 42.191000,32.540000 L 42.573000,33.385000 L 42.639000,34.342000 L 42.424000,35.500000 L 42.007000,36.805000 L 41.504000,38.180000 L 41.059000,39.597000 L 40.823000,41.055000 L 41.043000,42.542000 L 41.991000,43.851000 L 43.425000,44.572000 L 44.896000,44.560000 L 46.249000,44.100000 L 47.521000,43.425000 L 48.764000,42.700000 L 49.973000,42.041000 L 51.136000,41.578000 L 52.227000,41.387000 L 53.420000,41.532000 L 54.837000,41.996000 L 56.403000,42.663000 L 58.043000,43.380000 L 59.719000,44.002000 L 61.424000,44.350000 L 63.148000,44.184000 L 64.705000,43.194000 L 65.562000,41.578000 L 65.426000,39.883000 L 64.738000,38.350000 L 63.809000,36.892000 L 62.847000,35.480000 L 62.052000,34.121000 L 61.588000,32.891000 L 61.559000,31.793000 L 61.976000,30.703000 L 62.822000,29.555000 L 63.982000,28.379000 L 65.308000,27.193000 L 66.637000,25.971000 L 67.823000,24.670000 L 68.685000,23.187000 L 68.929000,21.443000 L 68.279000,19.856000 L 66.861000,19.260000 L 65.420000,19.367000 L 64.016000,19.711000 L 62.657000,20.087000 L 61.451000,20.319000 L 60.600000,20.298000 L 60.142000,20.050000 L 59.865000,19.515000 L 59.790000,18.545000 L 59.940000,17.228000 L 60.201000,15.749000 L 60.423000,14.224000 L 60.416000,12.703000 L 59.837000,11.249000 L 58.400000,10.376000 L 56.738000,10.347000 L 55.350000,10.969000 L 54.211000,11.955000 L 53.211000,13.136000 L 52.271000,14.395000 L 51.322000,15.630000 L 50.344000,16.724000 L 49.299000,17.589000"
   style="opacity:0.20000000;fill-rule:evenodd"
   id="path97" />

		<g
   id="g99">
			<path
   d="M 10.339000,51.565000 C 10.447000,48.356000 15.988000,52.161000 17.919000,49.437000 C 19.854000,46.716000 17.643000,39.556000 20.314000,37.509000 C 22.986000,35.463000 22.454000,42.602000 25.335000,43.770000 C 28.219000,44.942000 33.565000,40.861000 35.975000,43.865000 C 38.380000,46.865000 36.764000,53.579000 35.376000,56.304000 C 33.984000,59.023000 30.415000,53.918000 29.480000,56.579000 C 28.543000,59.229000 32.968000,64.781000 31.466000,67.412000 C 29.960000,70.039000 28.537000,62.186000 25.657000,63.257000 C 22.776000,64.319000 22.322000,73.432000 18.690000,72.144000 C 15.059000,70.860000 19.000000,63.966000 17.548000,60.390000 C 16.094000,56.802000 10.231000,54.772000 10.339000,51.565000 z "
   style="fill:#ff0000;fill-rule:evenodd"
   id="path101" />

			<linearGradient
   id="XMLID_7_"
   gradientUnits="userSpaceOnUse"
   x1="23.812000"
   y1="63.070801"
   x2="23.812000"
   y2="33.835400">
				<stop
   offset="0.3"
   style="stop-color:rgb(255,0,0)"
   id="stop105" />

				<stop
   offset="0.7"
   style="stop-color:rgb(255,255,255)"
   id="stop107" />

				<a:midPointStop
   offset="0.3"
   style="stop-color:#FF0000"
   id="midPointStop109" />

				<a:midPointStop
   offset="0.5"
   style="stop-color:#FF0000"
   id="midPointStop111" />

				<a:midPointStop
   offset="0.7"
   style="stop-color:#FFFFFF"
   id="midPointStop113" />

			</linearGradient>

			<path
   d="M 12.745000,52.038000 C 12.834000,49.385000 17.418000,52.527000 19.015000,50.273000 C 20.615000,48.025000 18.787000,42.101000 20.996000,40.410000 C 23.206000,38.720000 22.767000,44.624000 25.149000,45.590000 C 27.534000,46.559000 31.957000,43.182000 33.950000,45.668000 C 35.941000,48.150000 34.605000,53.705000 33.455000,55.958000 C 32.305000,58.203000 29.351000,53.977000 28.578000,56.182000 C 27.803000,58.378000 31.464000,62.976000 30.224000,65.143000 C 28.976000,67.318000 27.800000,60.822000 25.417000,61.709000 C 23.033000,62.587000 22.658000,70.122000 19.654000,69.059000 C 16.650000,67.997000 19.911000,62.296000 18.709000,59.330000 C 17.505000,56.372000 12.655000,54.689000 12.745000,52.038000 z "
   style="fill:url(#linearGradient1218);fill-rule:evenodd"
   id="path116" />

			<path
   d="M 49.131000,17.833000 C 45.796000,20.067000 38.981000,20.568000 37.454000,24.123000 C 35.927000,27.686000 42.049000,29.302000 42.836000,32.534000 C 43.623000,35.762000 39.387000,40.323000 41.925000,42.448000 C 44.463000,44.573000 47.824000,39.851000 51.458000,39.751000 C 55.093000,39.655000 60.508000,44.685000 63.189000,41.872000 C 65.866000,39.063000 59.050000,34.912000 59.790000,31.009000 C 60.527000,27.111000 67.510000,24.450000 67.142000,20.970000 C 66.774000,17.494000 60.723000,22.358000 58.641000,20.191000 C 56.559000,18.024000 60.650000,11.602000 57.363000,10.786000 C 54.072000,9.9750000 52.466000,15.601000 49.131000,17.833000 z "
   style="fill:#009700;fill-rule:evenodd"
   id="path118" />

			<linearGradient
   id="XMLID_8_"
   gradientUnits="userSpaceOnUse"
   x1="50.078098"
   y1="43.037102"
   x2="54.515202"
   y2="4.6629000">
				<stop
   offset="0.2416"
   style="stop-color:rgb(0,159,0)"
   id="stop122" />

				<stop
   offset="0.78"
   style="stop-color:rgb(255,255,255)"
   id="stop124" />

				<a:midPointStop
   offset="0.2416"
   style="stop-color:#009F00"
   id="midPointStop126" />

				<a:midPointStop
   offset="0.5"
   style="stop-color:#009F00"
   id="midPointStop128" />

				<a:midPointStop
   offset="0.78"
   style="stop-color:#FFFFFF"
   id="midPointStop130" />

			</linearGradient>

			<path
   d="M 49.711000,19.420000 C 46.929000,21.285000 41.246000,21.700000 39.975000,24.666000 C 38.703000,27.637000 43.808000,28.983000 44.462000,31.676000 C 45.119000,34.369000 41.587000,38.173000 43.702000,39.946000 C 45.819000,41.720000 48.622000,37.779000 51.653000,37.701000 C 54.683000,37.618000 59.199000,41.815000 61.432000,39.466000 C 63.665000,37.125000 57.983000,33.666000 58.598000,30.409000 C 59.214000,27.157000 65.036000,24.940000 64.730000,22.040000 C 64.419000,19.139000 59.375000,23.196000 57.641000,21.389000 C 55.906000,19.583000 59.315000,14.226000 56.574000,13.546000 C 53.832000,12.867000 52.494000,17.561000 49.711000,19.420000 z "
   style="fill:url(#linearGradient1219);fill-rule:evenodd"
   id="path133" />

			<path
   d="M 74.637000,15.245000 C 73.270000,18.779000 79.269000,20.788000 79.325000,23.953000 C 79.384000,27.119000 72.913000,28.391000 74.943000,31.949000 C 76.973000,35.512000 84.419000,39.721000 88.325000,39.735000 C 92.227000,39.752000 88.030000,34.096000 90.221000,32.000000 C 92.415000,29.907000 98.492000,31.416000 99.909000,28.673000 C 101.32900,25.930000 96.325000,24.277000 95.603000,21.596000 C 94.882000,18.911000 97.770000,15.841000 95.756000,13.211000 C 93.747000,10.584000 89.434000,7.8580000 85.399000,8.2430000 C 81.365000,8.6320000 76.000000,11.715000 74.637000,15.245000 z "
   style="fill:#3d60ff;fill-rule:evenodd"
   id="path135" />

			<linearGradient
   id="XMLID_9_"
   gradientUnits="userSpaceOnUse"
   x1="87.218803"
   y1="30.395000"
   x2="87.218803"
   y2="3.5658000">
				<stop
   offset="0.25"
   style="stop-color:rgb(63,114,255)"
   id="stop139" />

				<stop
   offset="0.75"
   style="stop-color:rgb(255,255,255)"
   id="stop141" />

				<a:midPointStop
   offset="0.25"
   style="stop-color:#3F72FF"
   id="midPointStop143" />

				<a:midPointStop
   offset="0.5"
   style="stop-color:#3F72FF"
   id="midPointStop145" />

				<a:midPointStop
   offset="0.75"
   style="stop-color:#FFFFFF"
   id="midPointStop147" />

			</linearGradient>

			<path
   d="M 76.058000,16.268000 C 74.852000,19.388000 80.148000,21.161000 80.201000,23.961000 C 80.256000,26.754000 74.537000,27.877000 76.331000,31.022000 C 78.126000,34.166000 84.697000,37.883000 88.147000,37.895000 C 91.594000,37.907000 87.887000,32.915000 89.826000,31.067000 C 91.762000,29.215000 97.132000,30.549000 98.381000,28.126000 C 99.633000,25.707000 95.212000,24.248000 94.579000,21.878000 C 93.940000,19.508000 96.489000,16.799000 94.714000,14.475000 C 92.937000,12.150000 89.130000,9.7470000 85.564000,10.088000 C 81.999000,10.431000 77.264000,13.148000 76.058000,16.268000 z "
   style="fill:url(#linearGradient1220);fill-rule:evenodd"
   id="path150" />

		</g>

	</g>

</svg>
