<?xml version="1.0" encoding="UTF-8" standalone="no"?>
<!-- Created with Inkscape (http://www.inkscape.org/) -->
<svg
   xmlns:svg="http://www.w3.org/2000/svg"
   xmlns="http://www.w3.org/2000/svg"
   xmlns:xlink="http://www.w3.org/1999/xlink"
   version="1.0"
   width="128"
   height="128"
   id="svg1307">
  <defs
     id="defs1309">
    <linearGradient
       id="linearGradient3291">
      <stop
         style="stop-color:#000000;stop-opacity:1"
         offset="0"
         id="stop3293" />
      <stop
         style="stop-color:#000000;stop-opacity:0"
         offset="1"
         id="stop3295" />
    </linearGradient>
    <radialGradient
       cx="63.912209"
       cy="115.70919"
       r="63.912209"
       fx="64.052971"
       fy="128.71255"
       id="radialGradient3297"
       xlink:href="#linearGradient3291"
       gradientUnits="userSpaceOnUse"
       gradientTransform="matrix(1,0,0,0.197802,0,92.82166)" />
    <linearGradient
       id="linearGradient3262">
      <stop
         style="stop-color:#ffffff;stop-opacity:0.46402878"
         offset="0"
         id="stop3264" />
      <stop
         style="stop-color:#ffffff;stop-opacity:0.49803922"
         offset="0"
         id="stop3270" />
      <stop
         style="stop-color:#ffffff;stop-opacity:0"
         offset="1"
         id="stop3266" />
    </linearGradient>
    <linearGradient
       id="linearGradient3281">
      <stop
         style="stop-color:#ffffff;stop-opacity:0.53597122"
         offset="0"
         id="stop3283" />
      <stop
         style="stop-color:#ffffff;stop-opacity:0.49803922"
         offset="0.12041885"
         id="stop3285" />
      <stop
         style="stop-color:#ffffff;stop-opacity:0"
         offset="1"
         id="stop3287" />
    </linearGradient>
    <linearGradient
       id="linearGradient3354">
      <stop
         style="stop-color:#ffffff;stop-opacity:1"
         offset="0"
         id="stop3356" />
      <stop
         style="stop-color:#ffffff;stop-opacity:0"
         offset="1"
         id="stop3358" />
    </linearGradient>
    <linearGradient
       id="linearGradient3394">
      <stop
         style="stop-color:#ffffff;stop-opacity:1"
         offset="0"
         id="stop3396" />
      <stop
         style="stop-color:#ffffff;stop-opacity:0"
         offset="1"
         id="stop3398" />
    </linearGradient>
    <linearGradient
       id="linearGradient3415">
      <stop
         style="stop-color:#ffffff;stop-opacity:1"
         offset="0"
         id="stop3417" />
      <stop
         style="stop-color:#ffffff;stop-opacity:0"
         offset="1"
         id="stop3419" />
    </linearGradient>
    <radialGradient
       cx="63.644768"
       cy="44.872078"
       r="52.84375"
       fx="63.644966"
       fy="-6.0566635"
       id="radialGradient2913"
       xlink:href="#linearGradient3281"
       gradientUnits="userSpaceOnUse"
       gradientTransform="matrix(0.289107,3.299236e-3,-4.171194e-3,0.365561,14.10049,75.50046)" />
    <linearGradient
       x1="68.017433"
       y1="49.921284"
       x2="71.869911"
       y2="82.321091"
       id="linearGradient2915"
       xlink:href="#linearGradient3262"
       gradientUnits="userSpaceOnUse"
       gradientTransform="matrix(0.410124,-5.13222e-4,5.129803e-4,0.409703,6.187573,75.31867)" />
    <linearGradient
       x1="66.026833"
       y1="50.511532"
       x2="71.149086"
       y2="74.556625"
       id="linearGradient2917"
       xlink:href="#linearGradient3262"
       gradientUnits="userSpaceOnUse"
       gradientTransform="matrix(0.402369,-5.035175e-4,5.054135e-4,0.403884,7.146914,76.06653)" />
    <linearGradient
       x1="60.46632"
       y1="135.66049"
       x2="69.812897"
       y2="76.248276"
       id="linearGradient2919"
       xlink:href="#linearGradient3415"
       gradientUnits="userSpaceOnUse"
       gradientTransform="matrix(0.410124,-5.13222e-4,5.129803e-4,0.409703,6.17377,75.53269)" />
    <radialGradient
       cx="31.210443"
       cy="64.029015"
       r="54.00301"
       fx="31.210443"
       fy="64.029015"
       id="radialGradient2921"
       xlink:href="#linearGradient3415"
       gradientUnits="userSpaceOnUse"
       gradientTransform="matrix(0.158774,-4.618111e-7,-2.450533e-10,0.113975,13.17565,101.4187)" />
    <radialGradient
       cx="205.04733"
       cy="56.30162"
       r="54.00301"
       fx="205.04733"
       fy="56.30162"
       id="radialGradient2923"
       xlink:href="#linearGradient3415"
       gradientUnits="userSpaceOnUse"
       gradientTransform="matrix(0.158774,-5.430961e-7,-4.531664e-10,0.134039,13.20757,101.2996)" />
    <linearGradient
       x1="67.970039"
       y1="1.9224545"
       x2="67.959129"
       y2="10.467514"
       id="linearGradient2925"
       xlink:href="#linearGradient3354"
       gradientUnits="userSpaceOnUse"
       gradientTransform="matrix(0.420708,-4.935415e-4,5.371083e-4,0.402369,5.522596,76.24595)" />
    <linearGradient
       x1="64.492966"
       y1="2.6087556"
       x2="64.140549"
       y2="9.02281"
       id="linearGradient2927"
       xlink:href="#linearGradient3354"
       gradientUnits="userSpaceOnUse" />
    <linearGradient
       x1="80.28141"
       y1="15.789286"
       x2="73.233002"
       y2="16.91703"
       id="linearGradient2929"
       xlink:href="#linearGradient3354"
       gradientUnits="userSpaceOnUse" />
    <linearGradient
       x1="22.554918"
       y1="45.886005"
       x2="22.695887"
       y2="49.903599"
       id="linearGradient2931"
       xlink:href="#linearGradient3394"
       gradientUnits="userSpaceOnUse"
       gradientTransform="matrix(0.411726,-5.152275e-4,5.035177e-4,0.402369,6.679269,76.24703)" />
  </defs>
  <g
     id="layer1">
    <path
       d="M 50.892799,3.2812959 L 50.892799,0.48658747 L 50.892799,3.2812959 z "
       style="fill:#ffffff;fill-opacity:0.75688076;fill-rule:nonzero;stroke:none;stroke-width:0.5;stroke-linecap:round;stroke-linejoin:round;stroke-miterlimit:4;stroke-dasharray:none;stroke-dashoffset:4;stroke-opacity:1"
       id="path2276" />
    <path
       d="M 127.82442 115.70919 A 63.912209 12.641975 0 1 1  0,115.70919 A 63.912209 12.641975 0 1 1  127.82442 115.70919 z"
       transform="matrix(1,0,0,0.416667,0,74.87151)"
       style="opacity:0.38139535;fill:url(#radialGradient3297);fill-opacity:1;fill-rule:nonzero;stroke:none;stroke-width:0;stroke-linecap:round;stroke-linejoin:round;stroke-miterlimit:4;stroke-dasharray:none;stroke-dashoffset:4;stroke-opacity:1"
       id="path3289" />
    <path
       d="M 29.628458,77.288533 L 29.628458,76.235359 L 29.628458,77.288533 z "
       style="fill:#ffffff;fill-opacity:0.75688076;fill-rule:nonzero;stroke:none;stroke-width:0.5;stroke-linecap:round;stroke-linejoin:round;stroke-miterlimit:4;stroke-dasharray:none;stroke-dashoffset:4;stroke-opacity:1"
       id="path1833" />
    <g
       transform="matrix(2.490375,0,0,2.490375,-16.72671,-186.7064)"
       id="g2899">
      <path
         d="M 36.323526,79.339118 L 36.344882,96.395658 L 53.998193,96.373567 L 54.008176,104.34656 L 36.354865,104.36865 L 36.37703,122.07141 L 28.328204,122.08149 L 28.306039,104.37873 L 10.652732,104.40082 L 10.642749,96.427821 L 19.138854,96.417189 L 28.296056,96.40573 L 28.2747,79.34919 L 36.323526,79.339118"
         style="font-size:181.87721252px;font-style:normal;font-variant:normal;font-weight:bold;font-stretch:normal;text-align:start;line-height:125%;writing-mode:lr-tb;text-anchor:start;fill:#000000;fill-opacity:1;stroke:#000000;stroke-width:3.83695221;stroke-linecap:round;stroke-linejoin:round;stroke-miterlimit:4;stroke-dasharray:none;stroke-opacity:1;font-family:Bitstream Vera Sans"
         id="path2297" />
      <path
         d="M 29.598258,79.514443 C 29.01421,79.515174 28.701464,79.796826 28.70233,80.48861 C 28.703151,81.143895 28.902626,95.985752 28.722272,96.414651 C 28.721037,96.415378 28.711202,96.426754 28.709471,96.42747 C 28.707249,96.428175 28.699366,96.426791 28.696655,96.427486 C 27.894424,96.599236 12.277351,96.435229 11.609717,96.436065 C 10.907061,96.436944 10.648855,96.729766 10.649611,97.333493 C 10.650041,97.67691 10.652362,99.530828 10.654101,100.91956 C 28.150704,103.61453 39.480836,98.98699 53.997158,99.328931 C 53.996637,98.913369 53.994703,97.368119 53.994591,97.279252 C 53.993889,96.718527 53.774352,96.3833 53.07069,96.384181 C 52.402036,96.385018 36.749495,96.588155 35.945336,96.418415 C 35.942618,96.417727 35.934748,96.419131 35.93252,96.418431 C 35.930785,96.417719 35.920925,96.406368 35.919687,96.405644 C 35.918973,96.403935 35.907559,96.395046 35.906855,96.392857 C 35.732233,95.720935 35.900114,80.774231 35.89965,80.402784 C 35.898981,79.868181 35.667657,79.506848 34.988565,79.507698 C 34.325176,79.508528 30.150914,79.513752 29.598258,79.514443 z "
         style="font-size:181.87721252px;font-style:normal;font-variant:normal;font-weight:bold;font-stretch:normal;text-align:start;line-height:125%;writing-mode:lr-tb;text-anchor:start;fill:url(#radialGradient2913);fill-opacity:1;stroke:none;stroke-width:12.9989996;stroke-linecap:round;stroke-linejoin:round;stroke-miterlimit:4;stroke-dasharray:none;stroke-opacity:1;font-family:Bitstream Vera Sans"
         id="path3275" />
      <path
         d="M 29.308332,79.225945 C 28.724284,79.226675 28.411538,79.508328 28.412404,80.200112 C 28.413224,80.855397 28.613212,95.98625 28.432858,96.41514 C 28.431624,96.41587 28.421788,96.42725 28.420058,96.42796 C 28.417835,96.42867 28.409952,96.42728 28.407241,96.42798 C 27.60501,96.59973 12.277351,96.43521 11.609717,96.43605 C 10.907061,96.43692 10.648855,96.72975 10.649611,97.33347 C 10.650041,97.67689 10.652362,99.53081 10.6541,100.91954 C 28.150704,103.61452 39.480836,98.98697 53.997177,99.32891 C 53.996657,98.91335 53.994722,97.3681 53.994611,97.27923 C 53.993909,96.71851 53.774372,96.38328 53.07071,96.38416 C 52.402056,96.385 36.998671,96.58762 36.194512,96.41788 C 36.191794,96.41719 36.183924,96.4186 36.181696,96.4179 C 36.179961,96.41719 36.170101,96.40584 36.168863,96.40511 C 36.168149,96.4034 36.156734,96.39451 36.156031,96.39232 C 35.981409,95.7204 36.148777,80.484706 36.148313,80.11326 C 36.147643,79.578656 35.91632,79.217323 35.237228,79.218173 C 34.573839,79.219003 29.860987,79.225253 29.308332,79.225945 z "
         style="font-size:181.87721252px;font-style:normal;font-variant:normal;font-weight:bold;font-stretch:normal;text-align:start;line-height:125%;writing-mode:lr-tb;text-anchor:start;opacity:0.06976743;fill:url(#linearGradient2915);fill-opacity:1;stroke:none;stroke-width:12.9989996;stroke-linecap:round;stroke-linejoin:round;stroke-miterlimit:4;stroke-dasharray:none;stroke-opacity:1;font-family:Bitstream Vera Sans"
         id="path3260" />
      <path
         d="M 29.054713,79.106091 C 28.555611,79.147957 28.288115,79.441157 28.288913,80.078896 C 28.289464,80.518378 28.387224,87.52499 28.392126,92.22054 C 30.752189,90.34052 33.85929,87.84375 36.254987,85.43302 C 36.275901,81.687375 36.311269,80.169015 36.31105,79.993129 C 36.310381,79.458525 36.071116,79.097311 35.392024,79.098161 C 34.728636,79.098991 29.745683,79.105227 29.193027,79.105918 C 29.147399,79.105975 29.09701,79.102543 29.054713,79.106091 z M 11.510447,96.43196 C 10.880053,96.45892 10.64324,96.75374 10.64396,97.32916 C 10.64439,97.67258 10.646707,99.5249 10.648446,100.91363 C 13.518981,101.35578 16.230125,101.60896 18.810002,101.71119 C 18.811822,101.70916 18.820757,101.7132 18.822576,101.71117 C 20.41131,99.94286 22.001182,98.1856 23.669644,96.50509 C 18.880634,96.50638 12.053423,96.43128 11.611039,96.43183 C 11.578102,96.43188 11.54145,96.43063 11.510447,96.43196 z M 52.778434,96.38032 C 51.299924,96.39513 44.889532,96.47899 40.518845,96.48401 C 39.450253,97.76239 38.530655,99.11451 37.770139,100.48843 C 43.064551,99.83308 48.290592,99.19766 54.001812,99.33219 C 54.001291,98.91663 53.999347,97.36378 53.999236,97.27491 C 53.998534,96.71418 53.771299,96.37908 53.067637,96.37996 C 53.025849,96.38001 52.926999,96.37883 52.778434,96.38032 z "
         style="font-size:181.87721252px;font-style:normal;font-variant:normal;font-weight:bold;font-stretch:normal;text-align:start;line-height:125%;writing-mode:lr-tb;text-anchor:start;opacity:0.31162792;fill:url(#linearGradient2917);fill-opacity:1;stroke:none;stroke-width:12.9989996;stroke-linecap:round;stroke-linejoin:round;stroke-miterlimit:4;stroke-dasharray:none;stroke-opacity:1;font-family:Bitstream Vera Sans"
         id="path3345" />
      <path
         d="M 54.009184,105.1513 L 37.160611,105.17274 L 37.182776,122.59384 L 27.524473,122.60557 L 27.502308,105.18447 L 10.653738,105.20555"
         style="font-size:181.87721252px;font-style:normal;font-variant:normal;font-weight:bold;font-stretch:normal;text-align:start;line-height:125%;writing-mode:lr-tb;text-anchor:start;opacity:0.66511625;fill:none;fill-opacity:1;stroke:url(#linearGradient2919);stroke-width:0.93993443;stroke-linecap:round;stroke-linejoin:round;stroke-miterlimit:4;stroke-dasharray:none;stroke-opacity:1;font-family:Bitstream Vera Sans"
         id="path3413" />
      <path
         d="M 27.524473,122.88723 L 27.502308,105.18447 L 10.653738,105.20555"
         style="font-size:181.87721252px;font-style:normal;font-variant:normal;font-weight:bold;font-stretch:normal;text-align:start;line-height:125%;writing-mode:lr-tb;text-anchor:start;opacity:0.66511625;fill:none;fill-opacity:1;stroke:url(#radialGradient2921);stroke-width:0.93993443;stroke-linecap:round;stroke-linejoin:round;stroke-miterlimit:4;stroke-dasharray:none;stroke-opacity:1;font-family:Bitstream Vera Sans"
         id="path2316" />
      <path
         d="M 54.009184,105.1513 L 36.878952,105.17274"
         style="font-size:181.87721252px;font-style:normal;font-variant:normal;font-weight:bold;font-stretch:normal;text-align:start;line-height:125%;writing-mode:lr-tb;text-anchor:start;opacity:0.47441861;fill:none;fill-opacity:1;stroke:url(#radialGradient2923);stroke-width:0.93993443;stroke-linecap:round;stroke-linejoin:round;stroke-miterlimit:4;stroke-dasharray:none;stroke-opacity:1;font-family:Bitstream Vera Sans"
         id="path2328" />
      <path
         d="M 26.804027,80.223608 C 26.804027,79.075077 27.244233,77.828756 28.959976,77.828756 C 31.90493,77.825301 33.291462,77.822853 36.236418,77.819399 C 37.005988,77.818496 37.729226,78.630101 37.730291,79.427125 C 37.732707,81.237785 37.803724,84.538217 37.724744,82.242489 C 37.646702,79.974008 37.212053,78.813841 34.075173,78.813841 C 29.436179,78.813841 27.64644,78.431966 26.804027,80.223608 z "
         style="fill:url(#linearGradient2925);fill-opacity:1;fill-rule:evenodd;stroke:none;stroke-width:1px;stroke-linecap:butt;stroke-linejoin:miter;stroke-opacity:1"
         id="path3436" />
      <g
         transform="matrix(0.394397,-4.935415e-4,5.035177e-4,0.402369,25.42445,93.12309)"
         id="g3382">
        <path
           d="M 29.975488,6.7312859 C 31.917027,4.6110122 31.98439,4.0704841 32.615944,4 C 39.615944,4 66,4 73,4 C 74.829229,4 76.545751,6.0191713 76.545751,8 C 76.545751,12.5 76.545751,30.5 76.545751,35 C 75.230047,34.382632 74.470705,18.041315 74.290259,12.335564 C 74.111955,6.6975314 72.807191,5.9162428 61.291028,5.9162428 C 51.046445,5.9162428 33.802299,6.1963716 29.975488,6.7312859 z "
           style="opacity:0.91627909;fill:url(#linearGradient2927);fill-opacity:1;fill-rule:evenodd;stroke:none;stroke-width:1px;stroke-linecap:butt;stroke-linejoin:miter;stroke-opacity:1"
           id="path3384" />
        <path
           d="M 53.080854,8 C 53.080854,6.302631 54.370668,4 56.080854,4 C 63.080854,4 66,4 73,4 C 74.829229,4 76.545751,6.0191713 76.545751,8 C 76.545751,12.5 76.545751,30.5 76.545751,35 C 75.230047,34.382632 74.470705,18.041315 74.290259,12.335564 C 74.111955,6.6975314 72.951009,5.4933381 61.434846,5.4933381 C 51.190263,5.4933381 53.959403,6.4783081 53.080854,8 z "
           style="opacity:0.67906973;fill:url(#linearGradient2929);fill-opacity:1;fill-rule:evenodd;stroke:none;stroke-width:1px;stroke-linecap:butt;stroke-linejoin:miter;stroke-opacity:1"
           id="path3386" />
      </g>
      <path
         d="M 10.39302,94.932397 L 26.480701,94.912265 C 26.928486,94.911705 27.289429,95.271746 27.28999,95.719532 C 27.29055,96.167318 24.444365,95.726633 20.848551,95.731132 C 17.420399,95.735422 14.135159,96.544273 10.395043,96.548953 C 9.9472571,96.549513 9.5863142,96.189472 9.5857538,95.741686 C 9.5851934,95.293901 9.9452342,94.932958 10.39302,94.932397 z "
         style="opacity:0.67906973;fill:url(#linearGradient2931);fill-opacity:1;fill-rule:nonzero;stroke:none;stroke-width:9.51799965;stroke-linecap:round;stroke-linejoin:round;stroke-miterlimit:4;stroke-dashoffset:4;stroke-opacity:1"
         id="rect3392" />
    </g>
  </g>
</svg>
